<svg version="1.1" id="Layer_1" xmlns="http://www.w3.org/2000/svg" xmlns:xlink="http://www.w3.org/1999/xlink" x="0px" y="0px"
	 width="100%" viewBox="0 0 2000 600" enable-background="new 0 0 2000 600" xml:space="preserve">
<path fill="#F8D5D5" opacity="1.000000" stroke="none" 
	d="
M1247.000000,1.000000 
	C1307.354248,1.000000 1367.708496,1.000000 1428.519043,1.398932 
	C1428.317017,5.103848 1427.089844,8.408841 1427.083984,11.715967 
	C1426.970947,76.483994 1426.953369,141.252365 1427.086426,206.020340 
	C1427.097290,211.323944 1428.332275,216.625000 1428.596191,222.039124 
	C1426.406616,222.435486 1424.628418,222.806030 1422.830933,222.991196 
	C1404.712769,224.857483 1392.207397,234.362366 1384.774170,251.022263 
	C1384.733765,251.059830 1384.727783,250.923264 1385.114990,251.001343 
	C1399.163208,248.078308 1412.960571,246.389526 1426.998779,247.557220 
	C1426.999146,249.927109 1426.998291,251.878647 1426.533447,253.898560 
	C1411.407471,253.624664 1396.899536,254.477798 1382.746338,258.869781 
	C1381.839478,259.151184 1379.444824,257.282562 1379.001587,255.984253 
	C1376.134888,247.586548 1373.548828,239.089935 1371.028442,230.579102 
	C1370.254761,227.967041 1368.962769,226.973938 1366.146362,226.946793 
	C1351.012451,226.800934 1335.881592,226.368820 1320.747803,226.175873 
	C1310.620361,226.046768 1300.489868,226.151337 1290.118896,226.151337 
	C1288.797363,234.126480 1287.703125,240.729416 1286.502686,247.974350 
	C1308.255493,247.974350 1328.989380,247.974350 1350.252930,247.974350 
	C1350.252930,279.014984 1350.252930,309.558716 1350.252930,340.292664 
	C1368.052856,340.292664 1385.314087,340.292664 1402.768066,340.292664 
	C1403.118774,333.120728 1403.455200,326.240723 1403.823730,318.705872 
	C1397.666626,318.705872 1392.116577,318.705872 1386.569702,318.705872 
	C1386.569702,305.491150 1386.569702,292.911346 1386.569702,279.962250 
	C1392.424194,279.495209 1397.962891,278.934204 1403.515991,278.639526 
	C1411.034302,278.240540 1415.598999,281.600220 1416.979614,289.198944 
	C1417.849365,293.986053 1417.688599,298.960236 1417.992432,303.850372 
	C1418.319214,309.112061 1419.057861,314.388000 1418.873901,319.631653 
	C1418.639038,326.320984 1417.636719,332.981964 1417.008179,339.659241 
	C1416.350708,346.643372 1415.682129,353.627625 1415.159302,360.622375 
	C1415.032349,362.321014 1415.458252,364.060974 1415.632812,365.810333 
	C1420.497192,366.305084 1424.747314,366.737366 1428.983276,367.558197 
	C1428.312744,370.916229 1427.087646,373.884857 1427.083252,376.855316 
	C1426.976440,448.786621 1426.988770,520.718079 1427.042236,592.649475 
	C1427.044312,595.433289 1427.666748,598.216492 1428.000000,601.000000 
	C1345.312378,601.000000 1262.624878,601.000000 1179.524170,600.655151 
	C1182.745361,597.906921 1180.264893,594.665100 1180.626099,591.773987 
	C1181.266846,586.645447 1181.266113,581.772949 1180.529785,576.708191 
	C1180.072510,573.562927 1180.445557,570.277100 1180.625000,567.064331 
	C1180.845459,563.115356 1181.540527,559.173706 1181.497070,555.234741 
	C1181.454956,551.407959 1180.585205,547.597229 1180.368042,543.763062 
	C1180.205078,540.882690 1180.395996,537.968384 1180.616699,535.083496 
	C1180.907104,531.286499 1181.794067,527.490173 1181.671509,523.718018 
	C1181.520386,519.072754 1180.541870,514.458313 1180.036377,509.817993 
	C1179.894897,508.519165 1179.847412,507.058441 1180.293091,505.873779 
	C1182.116821,501.026550 1181.030884,496.178192 1180.725708,491.293732 
	C1180.507202,487.796570 1180.708862,484.267548 1180.829468,480.756409 
	C1180.965332,476.799500 1181.426147,472.843506 1181.365601,468.892944 
	C1181.307007,465.063660 1180.579956,461.246307 1180.484863,457.415344 
	C1180.368530,452.722961 1180.614014,448.022003 1180.684326,443.324432 
	C1180.736816,439.810028 1180.692383,436.292816 1180.813477,432.781067 
	C1180.950073,428.824707 1181.436768,424.869904 1181.377319,420.920349 
	C1181.319702,417.091095 1180.590088,413.274841 1180.467773,409.442932 
	C1180.313110,404.599091 1180.446777,399.744751 1180.509033,394.895660 
	C1180.552246,391.531525 1180.640259,388.166565 1180.789062,384.805573 
	C1180.964111,380.850616 1181.447266,376.896301 1181.388672,372.947754 
	C1181.331909,369.117859 1179.346313,364.662933 1180.716309,361.606934 
	C1183.260010,355.932068 1180.261719,356.083862 1176.714111,355.507446 
	C1178.573853,351.599579 1180.303345,348.024445 1182.214600,344.217407 
	C1181.596924,342.025177 1180.797363,340.064758 1180.383545,337.990875 
	C1182.869019,337.575958 1184.968750,337.274536 1187.291504,336.941101 
	C1189.861084,345.687073 1192.215820,354.149628 1194.925171,362.497131 
	C1195.395874,363.947357 1197.362061,365.942444 1198.643188,365.946472 
	C1221.910034,366.019897 1245.178101,365.864319 1268.443848,365.587463 
	C1269.705444,365.572418 1271.736084,364.303986 1272.064941,363.213745 
	C1273.486938,358.497986 1274.408691,353.631378 1275.712402,347.947937 
	C1267.564575,347.947937 1260.282593,347.947937 1253.000244,347.512451 
	C1253.012329,345.328888 1253.024780,343.580841 1253.487183,341.729858 
	C1260.260132,341.567352 1266.590820,341.656647 1272.899536,341.327026 
	C1274.218384,341.258148 1276.436646,339.768921 1276.571045,338.720367 
	C1277.386353,332.352264 1277.718384,325.922272 1278.262939,318.847961 
	C1271.396973,318.847961 1265.235474,318.847961 1259.561279,318.847961 
	C1261.120117,310.018341 1263.062500,301.766876 1263.918091,293.404266 
	C1264.795898,284.823303 1264.974976,276.126831 1264.811523,267.493164 
	C1264.524536,252.325684 1258.602417,240.117508 1244.987061,232.137634 
	C1245.762695,229.248993 1246.918701,226.751801 1246.921997,224.253143 
	C1247.018066,149.835526 1247.000000,75.417747 1247.000000,1.000000 
M1314.500000,255.138687 
	C1305.076172,255.138687 1295.652466,255.138687 1286.150024,255.138687 
	C1285.825073,261.834015 1285.536621,267.778168 1285.219116,274.322571 
	C1292.388672,274.322571 1299.124390,274.322571 1305.931152,274.322571 
	C1305.931152,289.433868 1305.931152,303.953552 1305.931152,318.764709 
	C1302.140747,318.764709 1298.802979,318.588440 1295.502075,318.860504 
	C1294.348877,318.955566 1292.463501,320.013306 1292.314575,320.873993 
	C1291.217651,327.213013 1290.475952,333.613464 1289.601074,340.153076 
	C1307.694214,340.153076 1325.055786,340.153076 1342.305908,340.153076 
	C1342.305908,311.626923 1342.305908,283.546967 1342.305908,255.138687 
	C1333.125122,255.138687 1324.312622,255.138687 1314.500000,255.138687 
M1310.560303,366.592041 
	C1330.705200,366.681396 1350.850342,366.864929 1370.994873,366.814545 
	C1379.235718,366.793915 1387.478394,366.331268 1395.711792,365.904663 
	C1396.998901,365.837952 1399.187134,365.088501 1399.350952,364.314331 
	C1400.521973,358.784149 1401.275879,353.165680 1402.173218,347.506836 
	C1363.961426,347.506836 1326.601196,347.506836 1289.021362,347.506836 
	C1288.645508,353.752777 1288.291260,359.641083 1287.873047,366.591583 
	C1295.649902,366.591583 1302.615723,366.591583 1310.560303,366.592041 
z"/>
<path fill="#F9DEDE" opacity="1.000000" stroke="none" 
	d="
M1176.583862,355.840179 
	C1180.261719,356.083862 1183.260010,355.932068 1180.716309,361.606934 
	C1179.346313,364.662933 1181.331909,369.117859 1181.388672,372.947754 
	C1181.447266,376.896301 1180.964111,380.850616 1180.789062,384.805573 
	C1180.640259,388.166565 1180.552246,391.531525 1180.509033,394.895660 
	C1180.446777,399.744751 1180.313110,404.599091 1180.467773,409.442932 
	C1180.590088,413.274841 1181.319702,417.091095 1181.377319,420.920349 
	C1181.436768,424.869904 1180.950073,428.824707 1180.813477,432.781067 
	C1180.692383,436.292816 1180.736816,439.810028 1180.684326,443.324432 
	C1180.614014,448.022003 1180.368530,452.722961 1180.484863,457.415344 
	C1180.579956,461.246307 1181.307007,465.063660 1181.365601,468.892944 
	C1181.426147,472.843506 1180.965332,476.799500 1180.829468,480.756409 
	C1180.708862,484.267548 1180.507202,487.796570 1180.725708,491.293732 
	C1181.030884,496.178192 1182.116821,501.026550 1180.293091,505.873779 
	C1179.847412,507.058441 1179.894897,508.519165 1180.036377,509.817993 
	C1180.541870,514.458313 1181.520386,519.072754 1181.671509,523.718018 
	C1181.794067,527.490173 1180.907104,531.286499 1180.616699,535.083496 
	C1180.395996,537.968384 1180.205078,540.882690 1180.368042,543.763062 
	C1180.585205,547.597229 1181.454956,551.407959 1181.497070,555.234741 
	C1181.540527,559.173706 1180.845459,563.115356 1180.625000,567.064331 
	C1180.445557,570.277100 1180.072510,573.562927 1180.529785,576.708191 
	C1181.266113,581.772949 1181.266846,586.645447 1180.626099,591.773987 
	C1180.264893,594.665100 1182.745361,597.906921 1179.055420,600.655151 
	C1101.645752,601.000000 1024.291504,601.000000 946.523193,600.584839 
	C946.406006,597.883057 946.961548,595.596619 946.962708,593.309875 
	C947.006714,505.550476 947.000061,417.791077 946.999451,330.031677 
	C946.999451,328.866028 947.378113,327.496490 946.896423,326.582306 
	C946.166382,325.196716 944.835266,324.127808 943.803101,322.548706 
	C951.730957,301.749695 959.615112,281.326355 967.499329,260.903015 
	C968.110229,261.079620 968.721130,261.256226 969.332031,261.432861 
	C969.332031,279.547699 969.332031,297.662567 969.332031,316.295288 
	C964.848206,316.295288 960.602478,316.295288 956.225708,316.295288 
	C955.342224,323.514771 954.518799,330.244049 953.666687,337.207397 
	C971.708191,337.207397 989.104797,337.207397 1006.474182,337.207397 
	C1006.474182,295.419647 1006.474182,254.003098 1006.474182,212.151337 
	C993.848389,212.151337 981.547180,212.304871 969.254395,212.053146 
	C965.787903,211.982178 964.306458,213.245392 963.045471,216.254791 
	C958.168152,227.894669 953.034851,239.427292 947.644775,250.935013 
	C946.132446,248.769516 944.972229,246.668884 943.852173,244.218048 
	C948.656555,232.526443 953.559265,221.240036 958.099487,209.809662 
	C959.440063,206.434738 961.274963,205.489563 964.767639,205.503830 
	C996.928772,205.635254 1029.090698,205.584061 1061.252319,205.586014 
	C1063.203247,205.586136 1065.154175,205.586029 1067.496826,205.586029 
	C1067.496826,199.270630 1067.496826,193.561249 1067.496826,187.477020 
	C1065.029785,187.333679 1062.730835,187.083755 1060.431885,187.083908 
	C1022.446594,187.086639 984.460999,187.187851 946.476257,187.061722 
	C941.810852,187.046234 939.580566,188.568939 937.852051,193.028320 
	C928.673584,216.708023 919.095093,240.232681 909.211426,264.919281 
	C907.124756,259.005188 905.381226,254.063690 904.016479,248.969879 
	C905.263550,246.564438 906.887146,244.312531 906.890808,242.057999 
	C907.021179,161.705490 907.000000,81.352730 907.000000,1.000000 
	C972.687561,1.000000 1038.375122,1.000000 1104.531372,1.468657 
	C1105.002075,76.020134 1105.004150,150.102951 1104.656494,224.383865 
	C1100.519165,225.088196 1096.672607,225.344040 1092.971191,226.215759 
	C1091.338989,226.600143 1089.076172,227.972702 1088.686279,229.346786 
	C1086.759644,236.137772 1085.363525,243.079346 1083.867310,249.589432 
	C1101.009766,248.353165 1117.505249,247.163559 1134.000488,246.371368 
	C1134.330688,248.791672 1134.661255,250.814529 1134.534912,252.903152 
	C1117.162109,253.560379 1100.302490,254.666885 1083.394775,258.094666 
	C1083.394775,265.730133 1083.394775,272.992828 1083.394775,280.324982 
	C1084.120605,280.402344 1084.596924,280.520782 1085.064575,280.493256 
	C1110.303223,279.006287 1135.532837,277.330292 1160.785522,276.147064 
	C1166.343750,275.886597 1172.062988,276.995514 1177.562988,278.159698 
	C1182.814819,279.271332 1184.488403,282.398468 1183.956055,288.329224 
	C1181.842163,288.194183 1179.716919,287.969788 1177.588745,287.936920 
	C1163.620239,287.721252 1149.648926,287.641205 1135.683105,287.319397 
	C1128.701904,287.158569 1123.792236,290.560852 1120.598022,296.190094 
	C1118.256348,300.316742 1115.973389,304.920258 1115.396606,309.528137 
	C1112.876953,329.653931 1119.699463,337.894470 1138.587402,339.072113 
	C1140.413818,339.185974 1142.252075,339.209747 1144.081543,339.158752 
	C1156.054077,338.825226 1168.025879,338.459564 1179.997803,338.104370 
	C1180.797363,340.064758 1181.596924,342.025177 1181.781738,344.332520 
	C1164.294922,346.823120 1147.407104,347.975250 1130.416870,345.999298 
	C1115.465088,344.260437 1107.892578,336.241516 1106.882446,321.236145 
	C1106.111572,309.784149 1107.553101,299.063141 1116.246460,290.063873 
	C1095.595703,290.976837 1080.516357,303.144714 1077.559570,321.802704 
	C1076.485229,328.582489 1076.875977,335.791107 1077.783936,342.647064 
	C1079.622070,356.527161 1087.996582,364.873535 1101.570435,368.196747 
	C1116.828003,371.932159 1132.230591,371.309479 1147.712891,370.312012 
	C1159.496826,369.552765 1169.251831,365.238373 1176.583862,355.840179 
M1014.211914,238.499985 
	C1014.211914,271.396362 1014.211914,304.292755 1014.211914,337.577759 
	C1031.600464,337.577759 1048.233276,337.620300 1064.864380,337.469971 
	C1065.842163,337.461151 1067.612549,335.928436 1067.646484,335.051788 
	C1067.889038,328.802704 1067.776001,322.539795 1067.776001,315.876282 
	C1061.656494,315.876282 1055.892578,315.876282 1049.958496,315.876282 
	C1049.958496,289.555573 1049.958496,263.651184 1049.958496,237.168350 
	C1053.651001,237.168350 1057.109863,237.291382 1060.550659,237.097183 
	C1061.656494,237.034775 1063.545410,236.283615 1063.667847,235.596466 
	C1064.991455,228.174789 1066.033813,220.702942 1067.157837,213.212097 
	C1049.007935,213.212097 1031.788330,213.212097 1014.212036,213.212097 
	C1014.212036,221.561310 1014.212036,229.530655 1014.211914,238.499985 
M987.500061,344.408966 
	C976.098450,344.408966 964.696838,344.408966 953.134399,344.408966 
	C952.671814,351.998413 952.261353,358.731720 951.812195,366.100952 
	C989.595825,366.100952 1026.629395,366.100952 1063.926025,366.100952 
	C1064.972290,358.525452 1065.899902,351.810272 1066.922119,344.409332 
	C1040.389282,344.409332 1014.444702,344.409332 987.500061,344.408966 
z"/>
<path fill="#F4C5C5" opacity="1.000000" stroke="none" 
	d="
M1796.000000,1.000000 
	C1833.020874,1.000000 1870.041870,1.000000 1907.802002,1.282607 
	C1912.438721,2.244529 1916.378418,2.742057 1920.226807,3.633083 
	C1942.805908,8.860835 1961.646118,20.483509 1976.444458,38.152641 
	C1990.388062,54.801567 1999.051147,73.903275 2000.048584,96.442963 
	C2000.012451,222.958099 2000.006348,349.006500 2000.007202,475.054871 
	C2000.007202,485.377747 2000.054565,495.700653 2000.061768,506.468262 
	C1999.694824,510.203491 1999.648804,513.559753 1998.950928,516.774414 
	C1990.682373,554.860046 1968.097534,580.842957 1931.876099,594.750366 
	C1923.952393,597.792725 1915.310913,598.965942 1907.000000,601.000000 
	C1870.312378,601.000000 1833.624878,601.000000 1796.469482,600.603760 
	C1796.347534,598.774109 1796.916382,597.353088 1796.997070,595.904846 
	C1797.218750,591.927490 1797.351074,587.937256 1797.300781,583.954895 
	C1797.252686,580.166321 1796.705688,576.376221 1796.789307,572.595947 
	C1796.874268,568.756104 1797.633911,564.933655 1797.774170,561.091797 
	C1797.885010,558.059082 1797.506470,555.008362 1797.341797,551.965820 
	C1797.136719,548.179443 1796.701538,544.388428 1796.784180,540.608521 
	C1796.867920,536.769104 1797.711182,532.945007 1797.775879,529.106750 
	C1797.889771,522.341248 1797.672485,515.570007 1797.571899,508.801453 
	C1797.557739,507.856445 1797.395508,506.914612 1797.341797,505.969055 
	C1797.126587,502.181824 1796.701416,498.388702 1796.784790,494.607300 
	C1796.869385,490.767731 1797.633423,486.945709 1797.775879,483.103943 
	C1797.888550,480.070618 1797.514038,477.018829 1797.348022,473.975677 
	C1797.141357,470.189453 1796.698242,466.398682 1796.779785,462.619019 
	C1796.862793,458.779877 1797.594482,454.958618 1797.788696,451.116699 
	C1797.934692,448.227570 1797.780640,445.311157 1797.578979,442.419556 
	C1797.315186,438.634888 1796.706909,434.869659 1796.548706,431.083466 
	C1796.346436,426.240204 1796.388306,421.383789 1796.433960,416.534088 
	C1796.465820,413.159668 1796.612793,409.782440 1796.832642,406.414612 
	C1797.083740,402.569763 1797.791626,398.727203 1797.711548,394.895966 
	C1797.632446,391.113007 1795.817017,387.136414 1796.552124,383.618591 
	C1797.747314,377.898956 1797.136353,372.548309 1796.460815,366.981262 
	C1807.830322,366.554565 1818.738037,366.214050 1829.805298,365.868530 
	C1830.827515,359.442017 1831.757324,353.595612 1832.817017,346.933411 
	C1820.156860,346.933411 1808.077881,346.933411 1796.000000,346.541931 
	C1796.334839,344.382477 1796.668457,342.614563 1797.461182,340.741730 
	C1809.531006,340.636810 1821.141602,340.636810 1833.372070,340.636810 
	C1833.372070,333.143616 1833.372070,326.246948 1833.372070,318.674377 
	C1828.167114,318.674377 1822.790771,318.674377 1817.126221,318.674377 
	C1817.126221,310.867462 1817.126221,303.720917 1817.126099,296.574371 
	C1817.125732,281.103516 1817.125732,281.103516 1832.580322,281.160522 
	C1844.445679,281.204285 1848.812012,284.994568 1848.827148,296.924316 
	C1848.844604,310.729584 1848.160034,324.543854 1847.476562,338.339142 
	C1847.027710,347.395172 1846.041504,356.424561 1845.272583,365.749817 
	C1876.431519,367.469452 1907.031494,367.626465 1937.634033,365.878540 
	C1938.676758,365.818970 1940.356445,364.820526 1940.552124,363.982513 
	C1941.814575,358.576263 1942.746582,353.092773 1943.895630,347.063843 
	C1922.815552,347.063843 1902.558594,347.063843 1881.889648,347.063843 
	C1882.139404,344.964172 1882.418091,343.358124 1882.509399,341.741516 
	C1883.671997,321.154266 1885.413696,300.575348 1885.749878,279.973816 
	C1885.998657,264.723877 1878.459717,257.442688 1863.409790,255.939301 
	C1849.535278,254.553360 1835.830933,255.762558 1822.318604,259.187927 
	C1820.767944,259.580994 1819.210693,259.947723 1816.372559,260.639679 
	C1817.473267,231.752136 1818.540039,203.752548 1819.614258,175.561142 
	C1812.247314,175.213089 1805.122559,174.876465 1797.925659,174.212921 
	C1797.626099,171.796509 1797.205322,169.706253 1797.213867,167.617752 
	C1797.228882,163.932571 1797.564453,160.249863 1797.653076,156.563385 
	C1797.718750,153.828659 1797.718994,151.082489 1797.545654,148.354294 
	C1797.305298,144.574646 1796.721069,140.813461 1796.564453,137.032745 
	C1796.364014,132.196335 1796.380371,127.347809 1796.422485,122.505531 
	C1796.451904,119.135834 1796.616821,115.763611 1796.838501,112.400253 
	C1797.091675,108.560921 1797.641113,104.735336 1797.760254,100.894424 
	C1797.910034,96.067543 1797.807129,91.230141 1797.712158,86.399261 
	C1797.643066,82.878006 1797.405029,79.360207 1797.252686,75.840424 
	C1797.089111,72.054985 1796.893188,68.270203 1796.792236,64.482979 
	C1796.671509,59.942982 1796.576660,55.400620 1796.583496,50.859451 
	C1796.588745,47.339844 1796.692749,43.816315 1796.889282,40.302155 
	C1797.104248,36.460266 1797.777832,32.620518 1797.693726,28.792089 
	C1797.610840,25.015871 1795.900635,21.080229 1796.568359,17.527260 
	C1797.637329,11.839622 1797.044312,6.475794 1796.000000,1.000000 
M1923.328979,234.216400 
	C1918.473755,228.520218 1912.155518,225.346542 1904.955566,223.920364 
	C1889.768799,220.912079 1874.480713,220.975601 1859.232056,223.232895 
	C1841.411011,225.871033 1829.806885,236.573822 1821.917480,253.051224 
	C1837.046509,248.167725 1851.973267,248.182831 1866.952026,248.967148 
	C1883.074341,249.811356 1892.618042,258.095581 1892.961060,274.036163 
	C1893.364746,292.805267 1892.066406,311.612915 1891.421875,330.400940 
	C1891.310547,333.649445 1890.780884,336.883636 1890.418213,340.377625 
	C1908.513428,340.377625 1926.116455,340.377625 1944.530640,340.377625 
	C1944.854614,333.186523 1945.170654,326.172119 1945.508789,318.666931 
	C1939.144287,318.666931 1933.547363,318.666931 1927.688110,318.666931 
	C1927.848877,316.897186 1927.821777,315.564697 1928.106934,314.302673 
	C1932.031494,296.924286 1932.394775,279.278381 1931.742798,261.610474 
	C1931.391235,252.084579 1929.913086,242.680695 1923.328979,234.216400 
z"/>
<path fill="#F6D0CF" opacity="1.000000" stroke="none" 
	d="
M1428.998535,221.927231 
	C1428.332275,216.625000 1427.097290,211.323944 1427.086426,206.020340 
	C1426.953369,141.252365 1426.970947,76.483994 1427.083984,11.715967 
	C1427.089844,8.408841 1428.317017,5.103848 1428.987793,1.398932 
	C1490.354248,1.000000 1551.708496,1.000000 1613.476807,1.415167 
	C1613.593994,4.117139 1613.039062,6.403771 1613.037476,8.690773 
	C1612.991455,77.305428 1612.989868,145.920135 1613.042236,214.534775 
	C1613.044067,216.985016 1613.665527,219.434799 1613.553223,221.966888 
	C1598.628174,224.032959 1583.924805,225.026627 1569.719360,228.228470 
	C1547.284058,233.285263 1531.427979,246.371246 1526.246094,269.889923 
	C1522.698364,285.991669 1522.660156,302.311432 1524.414185,318.601105 
	C1525.907349,332.468903 1529.921753,345.362305 1541.408691,354.618713 
	C1550.087891,361.612640 1560.404541,364.761780 1571.036621,367.033691 
	C1585.187378,370.057556 1599.585815,370.724731 1613.936035,371.543427 
	C1613.582642,374.400391 1613.038330,376.851624 1613.036743,379.303192 
	C1612.991577,453.202118 1613.000000,527.101074 1613.000000,601.000000 
	C1551.645752,601.000000 1490.291504,601.000000 1428.468628,601.000000 
	C1427.666748,598.216492 1427.044312,595.433289 1427.042236,592.649475 
	C1426.988770,520.718079 1426.976440,448.786621 1427.083252,376.855316 
	C1427.087646,373.884857 1428.312744,370.916229 1429.448486,367.478333 
	C1431.249390,366.903748 1432.571167,366.699707 1433.891968,366.706329 
	C1450.044312,366.787262 1466.197388,367.052338 1482.348267,366.943207 
	C1491.461182,366.881592 1500.569946,366.217072 1509.977539,365.811340 
	C1511.154419,359.494843 1512.256592,353.578918 1513.476929,347.028564 
	C1492.043701,347.028564 1471.631714,347.028564 1451.047974,347.028564 
	C1451.186523,345.391083 1451.311401,344.244659 1451.376709,343.094818 
	C1452.585449,321.850616 1454.258179,300.618408 1454.820679,279.356903 
	C1455.180298,265.757690 1449.414795,258.822083 1437.284912,255.506226 
	C1433.952148,254.595200 1430.431763,254.370041 1426.997559,253.830170 
	C1426.998291,251.878647 1426.999146,249.927109 1427.419312,247.492737 
	C1431.655029,247.647903 1435.461304,248.354889 1439.289551,248.911621 
	C1453.780273,251.018967 1460.807983,257.690002 1462.012939,271.984589 
	C1462.821167,281.571136 1462.814575,291.273895 1462.464355,300.898895 
	C1461.988770,313.971405 1460.836426,327.019287 1459.962769,340.252197 
	C1477.943481,340.252197 1495.819336,340.252197 1514.147949,340.252197 
	C1514.489502,333.042450 1514.816284,326.144196 1515.169189,318.694397 
	C1508.702271,318.694397 1502.975586,318.694397 1496.923828,318.694397 
	C1497.488403,314.869568 1497.993652,311.603119 1498.450195,308.329834 
	C1500.986938,290.141083 1502.458130,271.893372 1499.885132,253.602600 
	C1497.377563,235.775955 1488.977051,226.365707 1471.269897,224.030350 
	C1457.329590,222.191788 1443.099854,222.546646 1428.998535,221.927231 
z"/>
<path fill="#F5CBCB" opacity="1.000000" stroke="none" 
	d="
M1613.998291,221.884796 
	C1613.665527,219.434799 1613.044067,216.985016 1613.042236,214.534775 
	C1612.989868,145.920135 1612.991455,77.305428 1613.037476,8.690773 
	C1613.039062,6.403771 1613.593994,4.117139 1613.945557,1.415167 
	C1674.354248,1.000000 1734.708496,1.000000 1795.531372,1.000000 
	C1797.044312,6.475794 1797.637329,11.839622 1796.568359,17.527260 
	C1795.900635,21.080229 1797.610840,25.015871 1797.693726,28.792089 
	C1797.777832,32.620518 1797.104248,36.460266 1796.889282,40.302155 
	C1796.692749,43.816315 1796.588745,47.339844 1796.583496,50.859451 
	C1796.576660,55.400620 1796.671509,59.942982 1796.792236,64.482979 
	C1796.893188,68.270203 1797.089111,72.054985 1797.252686,75.840424 
	C1797.405029,79.360207 1797.643066,82.878006 1797.712158,86.399261 
	C1797.807129,91.230141 1797.910034,96.067543 1797.760254,100.894424 
	C1797.641113,104.735336 1797.091675,108.560921 1796.838501,112.400253 
	C1796.616821,115.763611 1796.451904,119.135834 1796.422485,122.505531 
	C1796.380371,127.347809 1796.364014,132.196335 1796.564453,137.032745 
	C1796.721069,140.813461 1797.305298,144.574646 1797.545654,148.354294 
	C1797.718994,151.082489 1797.718750,153.828659 1797.653076,156.563385 
	C1797.564453,160.249863 1797.228882,163.932571 1797.213867,167.617752 
	C1797.205322,169.706253 1797.626099,171.796509 1797.516846,174.302673 
	C1773.378906,174.884293 1749.576904,175.002060 1725.777588,175.322006 
	C1724.215698,175.343002 1721.618652,176.632614 1721.310181,177.806808 
	C1720.099976,182.413330 1719.614624,187.210220 1718.762939,192.545044 
	C1739.743164,192.545044 1760.130005,192.545044 1781.080933,192.545044 
	C1781.080933,242.083969 1781.080933,291.092010 1781.080933,340.846649 
	C1786.761108,340.846649 1791.881714,340.846649 1797.002197,340.846649 
	C1796.668457,342.614563 1796.334839,344.382477 1795.537842,346.625305 
	C1770.002686,347.100159 1744.931030,347.100159 1719.438354,347.100159 
	C1719.060669,353.562988 1718.717041,359.443726 1718.298828,366.600098 
	C1725.908813,366.600098 1733.012695,366.558075 1740.116211,366.608246 
	C1758.743896,366.739838 1777.371338,366.911621 1795.998901,367.067383 
	C1797.136353,372.548309 1797.747314,377.898956 1796.552124,383.618591 
	C1795.817017,387.136414 1797.632446,391.113007 1797.711548,394.895966 
	C1797.791626,398.727203 1797.083740,402.569763 1796.832642,406.414612 
	C1796.612793,409.782440 1796.465820,413.159668 1796.433960,416.534088 
	C1796.388306,421.383789 1796.346436,426.240204 1796.548706,431.083466 
	C1796.706909,434.869659 1797.315186,438.634888 1797.578979,442.419556 
	C1797.780640,445.311157 1797.934692,448.227570 1797.788696,451.116699 
	C1797.594482,454.958618 1796.862793,458.779877 1796.779785,462.619019 
	C1796.698242,466.398682 1797.141357,470.189453 1797.348022,473.975677 
	C1797.514038,477.018829 1797.888550,480.070618 1797.775879,483.103943 
	C1797.633423,486.945709 1796.869385,490.767731 1796.784790,494.607300 
	C1796.701416,498.388702 1797.126587,502.181824 1797.341797,505.969055 
	C1797.395508,506.914612 1797.557739,507.856445 1797.571899,508.801453 
	C1797.672485,515.570007 1797.889771,522.341248 1797.775879,529.106750 
	C1797.711182,532.945007 1796.867920,536.769104 1796.784180,540.608521 
	C1796.701538,544.388428 1797.136719,548.179443 1797.341797,551.965820 
	C1797.506470,555.008362 1797.885010,558.059082 1797.774170,561.091797 
	C1797.633911,564.933655 1796.874268,568.756104 1796.789307,572.595947 
	C1796.705688,576.376221 1797.252686,580.166321 1797.300781,583.954895 
	C1797.351074,587.937256 1797.218750,591.927490 1796.997070,595.904846 
	C1796.916382,597.353088 1796.347534,598.774109 1796.000732,600.603760 
	C1735.312378,601.000000 1674.624878,601.000000 1613.468628,601.000000 
	C1613.000000,527.101074 1612.991577,453.202118 1613.036743,379.303192 
	C1613.038330,376.851624 1613.582642,374.400391 1614.400879,371.479004 
	C1630.077759,370.684113 1645.264771,370.905090 1660.366089,369.872284 
	C1673.945190,368.943634 1687.444458,366.740295 1700.941040,364.831421 
	C1702.960938,364.545715 1706.036499,363.150574 1706.457520,361.657837 
	C1708.045410,356.027130 1708.738770,350.144226 1709.809204,344.119080 
	C1708.317505,344.119080 1707.650269,344.027618 1707.015381,344.132263 
	C1677.108154,349.061310 1646.952271,348.832672 1616.814087,348.089844 
	C1607.560547,347.861786 1598.211914,346.675446 1589.142822,344.791077 
	C1570.338257,340.883881 1560.695435,331.031219 1558.531494,312.194580 
	C1557.331055,301.746460 1557.679199,290.858917 1559.146606,280.424988 
	C1561.569336,263.196777 1572.004517,251.617554 1588.811890,247.113754 
	C1598.513916,244.513931 1608.700073,243.105423 1618.745972,242.540482 
	C1636.383911,241.548630 1654.023926,242.409195 1671.439819,245.919525 
	C1674.664429,246.569489 1676.034668,247.931610 1675.947266,251.574860 
	C1675.583496,266.727356 1675.595215,281.888916 1675.473511,297.047180 
	C1675.459229,298.830566 1675.471558,300.614136 1675.471558,302.861938 
	C1684.077759,302.366974 1692.035522,302.048737 1699.952026,301.296844 
	C1701.080688,301.189667 1702.703735,299.092712 1702.923340,297.727783 
	C1705.035889,284.593323 1707.204834,271.453735 1708.721313,258.242554 
	C1709.738525,249.380676 1709.728638,240.400864 1710.169189,231.653519 
	C1694.392456,225.960175 1678.696289,223.961273 1662.916504,223.095840 
	C1646.637329,222.202988 1630.306519,222.249344 1613.998291,221.884796 
M1584.450439,336.188538 
	C1592.394165,337.818604 1600.305542,340.631927 1608.287964,340.851318 
	C1630.066284,341.449860 1651.885986,341.348297 1673.667114,340.736816 
	C1685.912598,340.393005 1698.114502,338.490814 1710.665771,337.258301 
	C1710.665771,329.490356 1710.665771,322.417877 1710.665771,315.111725 
	C1708.966675,315.206329 1707.499268,315.300568 1706.030640,315.367920 
	C1680.601196,316.534210 1655.181152,318.264435 1629.739258,318.684814 
	C1608.661133,319.033051 1602.705200,312.050842 1603.564819,291.129852 
	C1604.188232,275.957001 1609.882568,270.590302 1625.109009,271.048584 
	C1628.046631,271.136993 1630.967651,271.779327 1634.528320,272.249573 
	C1634.528320,282.263458 1634.528320,291.968018 1634.528320,302.247040 
	C1646.091797,302.247040 1656.962769,302.247040 1667.803589,302.247040 
	C1667.803589,285.765747 1667.803589,269.498291 1667.803589,251.810883 
	C1653.002808,251.147949 1638.413818,249.929611 1623.834473,250.036011 
	C1613.767700,250.109451 1603.520142,251.134109 1593.699829,253.302963 
	C1578.220093,256.721710 1568.450928,267.039062 1566.468140,282.785583 
	C1565.217651,292.716339 1565.839478,303.017517 1566.753662,313.049408 
	C1567.727173,323.733978 1573.734497,331.524719 1584.450439,336.188538 
M1773.618164,289.500061 
	C1773.618164,259.742157 1773.618164,229.984283 1773.618164,200.121048 
	C1754.753540,200.121048 1736.510620,200.121048 1717.838745,200.121048 
	C1717.462769,207.632111 1717.100342,214.872467 1716.720215,222.464920 
	C1723.888184,223.012726 1730.430298,223.512695 1736.993408,224.014267 
	C1736.993408,255.790115 1736.993408,287.025574 1736.993408,318.727051 
	C1732.320068,318.727051 1727.887695,318.727051 1722.909180,318.727051 
	C1721.880737,326.082642 1720.905762,333.056396 1719.903564,340.224915 
	C1738.063965,340.224915 1755.605347,340.224915 1773.617676,340.224915 
	C1773.617676,323.400391 1773.617676,306.950226 1773.618164,289.500061 
z"/>
<path fill="#FFF9F9" opacity="1.000000" stroke="none" 
	d="
M156.000000,601.000000 
	C104.358200,601.000000 52.716400,601.000000 1.037301,601.000000 
	C1.037301,401.121124 1.037301,201.242264 1.037301,1.000000 
	C52.020321,1.000000 103.041504,1.000000 154.531342,1.468657 
	C155.001709,63.339481 155.003418,124.741646 154.545609,186.248688 
	C145.920120,186.370514 137.753220,186.314087 129.588409,186.419876 
	C113.092773,186.633621 96.596657,186.872971 80.105858,187.299377 
	C78.490135,187.341156 75.765877,188.487244 75.508652,189.580261 
	C74.310272,194.672516 73.798439,199.926331 72.972885,205.589951 
	C75.581093,205.589951 77.557152,205.584030 79.533173,205.590836 
	C105.023758,205.678757 130.514343,205.768509 155.998627,206.248398 
	C155.660950,208.405899 155.329605,210.172791 154.536880,212.025406 
	C148.474640,212.111115 142.873779,212.111115 137.267929,212.111115 
	C137.267929,254.250122 137.267929,295.730469 137.267929,337.844482 
	C143.754639,337.844482 149.879990,337.844482 155.997894,338.247864 
	C155.662125,340.485168 155.333786,342.319031 154.546234,344.259827 
	C126.818642,344.366699 99.550255,344.366699 71.861954,344.366699 
	C71.448486,351.746216 71.070183,358.498260 70.657021,365.872345 
	C99.147743,366.310944 127.071739,366.740845 154.997208,367.628723 
	C154.999115,440.779083 154.980087,513.471497 155.042984,586.163818 
	C155.047256,591.109497 155.666672,596.054626 156.000000,601.000000 
M92.500397,337.566864 
	C104.604675,337.566864 116.708954,337.566864 128.841537,337.566864 
	C128.841537,295.678192 128.841537,254.447647 128.841537,213.106842 
	C109.959946,213.106842 91.384995,213.106842 72.331139,213.106842 
	C71.884537,221.070236 71.451912,228.784241 70.980812,237.184402 
	C78.283211,237.184402 84.988762,237.184402 91.554565,237.184402 
	C91.554565,263.759644 91.554565,289.679047 91.554565,316.007416 
	C86.002098,316.007416 80.726723,316.007416 75.044533,316.007416 
	C74.158119,323.216309 73.315590,330.068268 72.393593,337.566528 
	C79.249763,337.566528 85.375229,337.566528 92.500397,337.566864 
z"/>
<path fill="#FEF4F4" opacity="1.000000" stroke="none" 
	d="
M156.468658,601.000000 
	C155.666672,596.054626 155.047256,591.109497 155.042984,586.163818 
	C154.980087,513.471497 154.999115,440.779083 155.461273,367.556519 
	C198.183624,366.826691 240.443390,366.627045 283.031799,366.425842 
	C283.677460,355.932953 284.475159,346.366394 284.778717,336.784119 
	C284.966095,330.868988 284.400635,324.929993 284.450836,318.955322 
	C285.018555,318.591522 285.308624,318.274139 285.598694,317.956757 
	C285.123474,317.637268 284.648254,317.317780 284.104614,316.548065 
	C283.960419,301.130798 283.884674,286.163727 283.805481,270.521149 
	C271.963715,270.521149 261.393433,270.521149 250.235428,270.521149 
	C250.235428,294.837555 250.235428,319.364288 250.235428,344.416473 
	C247.894882,344.416473 246.107986,344.416199 244.321091,344.416504 
	C227.849777,344.419464 211.378357,344.458191 194.907166,344.414276 
	C181.606445,344.378815 168.306000,344.243774 155.005432,344.152924 
	C155.333786,342.319031 155.662125,340.485168 156.454865,338.133636 
	C185.290787,337.615997 213.662292,337.615997 241.980011,337.615997 
	C241.980011,314.521576 241.980011,292.336182 241.980011,270.711517 
	C232.145447,270.711517 222.739304,270.711517 212.984573,270.711517 
	C211.083664,287.251770 209.268799,303.043427 207.457199,318.806580 
	C196.967102,318.806580 186.742355,318.806580 176.464279,318.806580 
	C176.464279,291.415985 176.464279,264.376831 176.464279,236.999390 
	C184.730637,236.999390 192.679886,236.999390 201.200699,236.999390 
	C202.332993,228.762772 203.429810,220.784256 204.645676,211.939697 
	C187.528107,211.939697 171.263168,211.939697 154.998245,211.939697 
	C155.329605,210.172791 155.660950,208.405899 156.456207,206.137146 
	C172.814011,205.635315 188.707901,205.635315 204.885010,205.635315 
	C204.885010,199.315308 204.885010,193.591995 204.885010,187.468018 
	C188.095337,187.022293 171.550232,186.583054 155.005142,186.143814 
	C155.003418,124.741646 155.001709,63.339481 155.000000,1.468657 
	C203.687561,1.000000 252.375122,1.000000 301.531342,1.468657 
	C302.000000,82.070442 302.016693,162.203583 301.942902,242.336655 
	C301.939728,245.767136 300.970459,249.187637 300.726166,252.632294 
	C300.648865,253.722229 301.467621,254.875717 301.851746,256.359955 
	C293.659058,276.406830 294.419739,297.038269 295.577820,317.660461 
	C296.160980,328.044617 299.007629,337.874939 304.124390,346.991882 
	C303.154175,349.455139 302.074951,351.744324 302.072540,354.034607 
	C301.985992,436.356354 302.000000,518.678162 302.000000,601.000000 
	C253.645767,601.000000 205.291550,601.000000 156.468658,601.000000 
z"/>
<path fill="#FDEFEF" opacity="1.000000" stroke="none" 
	d="
M511.000000,601.000000 
	C470.645782,601.000000 430.291534,601.000000 389.468658,600.531372 
	C389.000000,526.377197 389.010284,452.691742 388.957733,379.006317 
	C388.955872,376.393738 388.331818,373.781616 388.461761,371.097839 
	C410.010345,370.924530 431.109161,371.339447 451.799286,365.954742 
	C473.680145,360.260132 488.885834,347.903717 493.620453,324.939026 
	C497.425415,306.483521 497.936829,287.853302 494.661865,269.299042 
	C491.064270,248.916916 479.286591,235.016434 459.334412,229.158264 
	C449.291107,226.209457 438.831635,224.142548 428.418762,223.123169 
	C415.354004,221.844208 402.144043,222.048767 388.997040,221.168671 
	C388.998230,150.100723 389.009827,79.477188 388.957825,8.853699 
	C388.955872,6.235565 388.333344,3.617889 388.000000,1.000000 
	C428.687561,1.000000 469.375122,1.000000 510.531342,1.468657 
	C511.001038,59.650337 511.002045,117.363365 510.606812,175.192474 
	C508.604034,175.446106 506.997559,175.583649 505.062897,175.749298 
	C504.217468,181.291885 503.407166,186.603973 502.544586,192.259003 
	C505.818420,192.486160 508.412994,192.666183 511.005280,193.274719 
	C510.996490,195.673111 510.989960,197.643005 510.540588,199.701859 
	C507.471863,199.790817 504.846069,199.790817 501.677490,199.790817 
	C501.408997,203.808731 501.084839,207.396729 500.944672,210.991882 
	C500.515839,221.989273 500.543396,221.990341 510.982483,223.944214 
	C510.987122,255.789902 510.985260,287.201385 510.576965,318.701904 
	C509.063873,319.627991 507.170929,320.316071 506.979523,321.326447 
	C505.811707,327.491669 505.030304,333.730072 504.073761,340.260193 
	C507.057556,340.479828 509.510773,340.660431 511.937866,341.229370 
	C511.607117,343.391357 511.302490,345.165009 510.566772,347.021271 
	C508.072479,347.103882 506.009338,347.103882 503.391937,347.103882 
	C503.391937,353.781616 503.391937,359.741333 503.391937,365.784058 
	C505.740570,365.942596 507.867493,366.086151 510.063995,366.628601 
	C510.422394,369.310913 510.962311,371.594208 510.963654,373.877838 
	C511.007599,449.585205 511.000000,525.292603 511.000000,601.000000 
z"/>
<path fill="#FBE5E4" opacity="1.000000" stroke="none" 
	d="
M679.000000,1.000000 
	C704.687561,1.000000 730.375122,1.000000 756.540405,1.407709 
	C757.177246,4.575522 757.434021,7.334167 757.475281,10.096030 
	C757.565186,16.108736 757.517090,22.123363 757.576660,28.136700 
	C757.670227,37.585449 757.911316,47.033970 757.893921,56.482224 
	C757.877075,65.581909 757.480896,74.681305 757.492004,83.780525 
	C757.503296,93.057953 757.975586,102.335625 757.941895,111.612083 
	C757.898804,123.485085 757.372131,135.357147 757.383179,147.229309 
	C757.395508,160.432648 757.778320,173.635620 757.540039,186.923370 
	C752.491699,187.213486 747.903259,187.418991 743.392578,187.620987 
	C742.521179,193.698257 741.705872,199.384430 740.778687,205.851105 
	C747.141846,205.851105 752.571289,205.851105 758.000122,206.244476 
	C757.663940,208.627777 757.328430,210.617706 756.534302,212.699844 
	C750.985413,212.792038 745.895203,212.792038 740.187561,212.792038 
	C739.757263,221.486023 739.362061,229.471512 738.931519,238.169983 
	C745.778503,238.169983 751.888855,238.169983 757.998169,238.566223 
	C757.929688,242.354782 757.847717,245.746872 757.797485,249.139435 
	C757.670715,257.704559 757.516357,266.269592 757.452881,274.835236 
	C757.400452,281.914642 757.398193,288.995758 757.492188,296.074524 
	C757.579590,302.660736 757.823425,309.244873 757.536743,315.900116 
	C752.644409,315.970306 748.213745,315.970306 743.236450,315.970306 
	C742.230042,323.377655 741.287964,330.311554 740.263977,337.848389 
	C746.439209,337.848389 752.220032,337.848389 758.000427,338.298309 
	C758.000183,340.546661 758.000366,342.345062 757.543213,344.253113 
	C752.592468,344.381195 748.068359,344.107056 743.621460,344.571381 
	C741.987549,344.741974 739.308044,346.561462 739.210266,347.795593 
	C738.743896,353.682434 739.001343,359.626556 739.001343,365.906403 
	C745.533630,366.330383 751.266907,366.702484 757.010132,367.477661 
	C757.253418,371.450012 757.612122,375.016479 757.693176,378.589233 
	C757.845032,385.287628 757.910339,391.990112 757.875916,398.690155 
	C757.829102,407.803314 757.599915,416.915527 757.550110,426.028717 
	C757.495728,435.975586 757.548096,445.923126 757.571045,455.870331 
	C757.585327,462.053009 757.614685,468.235748 757.667297,474.418213 
	C757.746521,483.722992 757.889526,493.027405 757.935852,502.332306 
	C757.981079,511.419525 757.943604,520.507141 757.933594,529.594604 
	C757.926514,535.970642 757.938843,542.346985 757.881042,548.722656 
	C757.798523,557.835388 757.690063,566.947998 757.536621,576.059814 
	C757.396606,584.373840 757.181824,592.686646 757.000000,601.000000 
	C731.312439,601.000000 705.624878,601.000000 679.468628,600.531372 
	C678.998352,522.430786 678.996765,444.798920 679.459290,367.095276 
	C693.817078,366.669983 707.709656,366.260132 721.605164,366.009583 
	C724.455505,365.958160 725.716858,365.028076 726.108582,362.077118 
	C726.749817,357.245850 727.886108,352.480255 728.957886,346.941040 
	C711.870789,346.941040 695.434326,346.941040 678.998779,346.507568 
	C679.001831,344.331177 679.004028,342.588287 679.464661,340.737915 
	C695.086670,340.615936 710.251099,340.670959 725.412292,340.477295 
	C726.899841,340.458313 729.591492,338.985901 729.647583,338.062073 
	C730.026306,331.822754 729.845093,325.549438 729.845093,318.845978 
	C722.354675,318.845978 715.056213,318.926178 707.762207,318.779572 
	C706.267090,318.749512 704.203857,318.331604 703.396606,317.308228 
	C697.462158,309.785309 691.780334,302.063049 686.144043,294.569916 
	C695.865051,282.994171 704.426453,270.360535 722.211243,274.986816 
	C722.522095,275.067657 722.942688,275.106323 723.195862,274.961517 
	C724.131348,274.426331 725.639221,273.956177 725.824036,273.193268 
	C727.227600,267.397156 728.368713,261.537506 729.705017,255.156143 
	C719.108948,255.156143 709.900085,255.832886 700.837097,254.972580 
	C691.080322,254.046417 683.694275,256.402649 679.024475,265.382690 
	C678.663452,266.076904 677.883301,266.553192 677.009277,266.946045 
	C677.234619,264.710480 678.098328,262.664734 678.128052,260.606873 
	C678.145142,259.421875 676.813049,258.217377 676.111145,256.782593 
	C676.370422,256.128693 676.606873,255.713791 677.009766,254.950760 
	C677.783447,252.422516 678.390686,250.242401 679.459717,247.974442 
	C695.233032,247.874512 710.545776,247.751556 725.855042,247.930832 
	C729.532227,247.973892 730.993225,246.814331 730.965454,243.169174 
	C730.931335,238.693939 731.385803,234.209351 731.209351,229.745407 
	C731.171814,228.795853 729.374146,227.192184 728.306335,227.121933 
	C720.027954,226.577179 711.731812,226.257126 703.436890,226.020935 
	C695.291870,225.789032 687.141724,225.737457 678.994385,225.162750 
	C678.996643,150.145828 678.998291,75.572914 679.000000,1.000000 
z"/>
<path fill="#FCEAE9" opacity="1.000000" stroke="none" 
	d="
M678.995117,367.167053 
	C678.996765,444.798920 678.998352,522.430786 679.000000,600.531372 
	C623.312439,601.000000 567.624878,601.000000 511.468658,601.000000 
	C511.000000,525.292603 511.007599,449.585205 510.963654,373.877838 
	C510.962311,371.594208 510.422394,369.310913 510.517090,366.530609 
	C540.794128,366.890533 570.688660,367.849731 601.109497,365.536621 
	C601.109497,350.489777 601.109497,335.761566 601.109497,321.087372 
	C610.035034,320.514862 609.784668,320.649750 613.643127,327.811401 
	C619.950256,339.518250 626.496826,351.102661 633.272522,362.543243 
	C634.274048,364.234344 637.039551,365.726562 639.063965,365.829041 
	C652.362854,366.501953 665.682373,366.768158 678.995117,367.167053 
z"/>
<path fill="#FCEAE9" opacity="1.000000" stroke="none" 
	d="
M678.997925,248.062286 
	C678.390686,250.242401 677.783447,252.422516 676.554077,254.902893 
	C656.487122,255.203140 637.042297,255.203140 617.219971,255.203140 
	C616.754822,261.684174 616.320557,267.734558 615.866394,274.062195 
	C620.832336,274.345947 625.229980,274.597260 630.639587,274.906372 
	C625.313721,281.032166 620.591431,286.531860 615.757935,291.931946 
	C615.191101,292.565186 614.019043,292.918152 613.115051,292.942902 
	C609.174438,293.050720 605.229187,292.989227 600.251465,292.989227 
	C601.095154,253.553513 601.926147,214.709030 602.763916,175.547226 
	C601.838074,175.460480 600.373535,175.217926 598.906555,175.201859 
	C581.423950,175.010330 563.941101,174.763916 546.457886,174.716797 
	C534.640015,174.684952 522.821350,174.946228 511.003082,175.076385 
	C511.002045,117.363365 511.001038,59.650337 511.000000,1.468657 
	C566.687561,1.000000 622.375122,1.000000 678.531372,1.000000 
	C678.998291,75.572914 678.996643,150.145828 678.533691,225.250916 
	C660.633667,226.166351 643.193787,226.504913 625.758606,227.009399 
	C624.201477,227.054459 621.561646,227.889832 621.316467,228.844162 
	C619.765442,234.881454 618.748047,241.055801 617.383667,248.062302 
	C638.545410,248.062302 658.771667,248.062302 678.997925,248.062286 
z"/>
<path fill="#F9DADA" opacity="1.000000" stroke="none" 
	d="
M1105.006226,224.185776 
	C1105.004150,150.102951 1105.002075,76.020134 1105.000000,1.468657 
	C1152.020874,1.000000 1199.041870,1.000000 1246.531372,1.000000 
	C1247.000000,75.417747 1247.018066,149.835526 1246.921997,224.253143 
	C1246.918701,226.751801 1245.762695,229.248993 1244.627930,232.005798 
	C1241.356079,231.184219 1238.649170,229.950531 1235.836060,229.048553 
	C1219.921143,223.945663 1203.427612,222.080276 1186.884277,222.174057 
	C1159.588745,222.328781 1132.298584,223.463867 1105.006226,224.185776 
z"/>
<path fill="#FAE2E2" opacity="1.000000" stroke="none" 
	d="
M943.759521,322.924377 
	C944.835266,324.127808 946.166382,325.196716 946.896423,326.582306 
	C947.378113,327.496490 946.999451,328.866028 946.999451,330.031677 
	C947.000061,417.791077 947.006714,505.550476 946.962708,593.309875 
	C946.961548,595.596619 946.406006,597.883057 946.054504,600.584839 
	C905.645752,601.000000 865.291565,601.000000 824.468628,600.531372 
	C824.000000,524.655029 824.001831,449.247406 823.992004,373.839752 
	C823.991699,371.345154 823.872986,368.850555 824.204529,366.255981 
	C827.566101,366.155975 830.532654,366.155975 834.104675,366.155975 
	C835.137756,358.748627 836.102295,351.833344 837.175293,344.139801 
	C832.229553,344.139801 828.115173,344.139801 824.000366,343.690613 
	C824.000244,341.444519 824.000549,339.647583 824.452332,337.738464 
	C828.855774,337.626312 832.807739,337.626312 837.301819,337.626312 
	C837.301819,330.157135 837.301819,323.272186 837.301819,315.883057 
	C832.518799,315.883057 827.765991,315.883057 823.190063,315.883057 
	C823.190063,297.562469 823.190063,279.738190 823.190063,261.913910 
	C823.588013,261.788025 823.985962,261.662140 824.383911,261.536224 
	C825.217712,263.132416 826.232788,264.660858 826.858398,266.334839 
	C838.322815,297.012543 849.712769,327.718048 861.202637,358.386169 
	C862.663513,362.285614 865.023804,365.119904 870.012024,364.077301 
	C872.243530,363.610931 874.640442,363.936401 876.962280,363.901855 
	C892.778137,363.666687 908.593506,363.371185 924.410217,363.251465 
	C927.248779,363.229980 928.373230,362.024872 929.333679,359.517395 
	C934.023193,347.274109 938.929749,335.113953 943.759521,322.924377 
z"/>
<path fill="#FBE5E5" opacity="1.000000" stroke="none" 
	d="
M757.999878,186.838760 
	C757.778320,173.635620 757.395508,160.432648 757.383179,147.229309 
	C757.372131,135.357147 757.898804,123.485085 757.941895,111.612083 
	C757.975586,102.335625 757.503296,93.057953 757.492004,83.780525 
	C757.480896,74.681305 757.877075,65.581909 757.893921,56.482224 
	C757.911316,47.033970 757.670227,37.585449 757.576660,28.136700 
	C757.517090,22.123363 757.565186,16.108736 757.475281,10.096030 
	C757.434021,7.334167 757.177246,4.575522 757.009094,1.407709 
	C806.687561,1.000000 856.375122,1.000000 906.531372,1.000000 
	C907.000000,81.352730 907.021179,161.705490 906.890808,242.057999 
	C906.887146,244.312531 905.263550,246.564438 903.766479,248.715500 
	C896.316895,229.709717 889.404419,210.838181 882.756653,191.873840 
	C881.496765,188.279846 879.665894,187.117722 875.932678,187.103455 
	C846.444275,186.990829 816.956909,186.623199 787.468567,186.456268 
	C777.646729,186.400650 767.822815,186.701080 757.999878,186.838760 
z"/>
<path fill="#FDF1F1" opacity="1.000000" stroke="none" 
	d="
M387.997742,371.169281 
	C388.331818,373.781616 388.955872,376.393738 388.957733,379.006317 
	C389.010284,452.691742 389.000000,526.377197 389.000000,600.531372 
	C360.312439,601.000000 331.624878,601.000000 302.468658,601.000000 
	C302.000000,518.678162 301.985992,436.356354 302.072540,354.034607 
	C302.074951,351.744324 303.154175,349.455139 304.365265,347.198303 
	C312.849670,357.897644 324.070496,362.971710 336.445221,366.024323 
	C353.375366,370.200623 370.669800,370.891296 387.997742,371.169281 
z"/>
<path fill="#FDF1F1" opacity="1.000000" stroke="none" 
	d="
M387.531342,1.000000 
	C388.333344,3.617889 388.955872,6.235565 388.957825,8.853699 
	C389.009827,79.477188 388.998230,150.100723 388.671814,221.261459 
	C387.899719,221.767303 387.453125,221.735947 386.994171,221.362839 
	C386.417053,220.395432 385.852295,219.769775 385.287537,219.144135 
	C384.524353,220.043335 383.761169,220.942535 382.546143,221.926544 
	C368.292450,223.711182 354.335175,224.623413 340.728088,227.309647 
	C323.591644,230.692596 309.411652,239.112595 301.876312,256.000122 
	C301.467621,254.875717 300.648865,253.722229 300.726166,252.632294 
	C300.970459,249.187637 301.939728,245.767136 301.942902,242.336655 
	C302.016693,162.203583 302.000000,82.070442 302.000000,1.468657 
	C330.354218,1.000000 358.708466,1.000000 387.531342,1.000000 
z"/>
<path fill="#FBE5E5" opacity="1.000000" stroke="none" 
	d="
M823.809509,366.355957 
	C823.872986,368.850555 823.991699,371.345154 823.992004,373.839752 
	C824.001831,449.247406 824.000000,524.655029 824.000000,600.531372 
	C801.979126,601.000000 779.958191,601.000000 757.468628,601.000000 
	C757.181824,592.686646 757.396606,584.373840 757.536621,576.059814 
	C757.690063,566.947998 757.798523,557.835388 757.881042,548.722656 
	C757.938843,542.346985 757.926514,535.970642 757.933594,529.594604 
	C757.943604,520.507141 757.981079,511.419525 757.935852,502.332306 
	C757.889526,493.027405 757.746521,483.722992 757.667297,474.418213 
	C757.614685,468.235748 757.585327,462.053009 757.571045,455.870331 
	C757.548096,445.923126 757.495728,435.975586 757.550110,426.028717 
	C757.599915,416.915527 757.829102,407.803314 757.875916,398.690155 
	C757.910339,391.990112 757.845032,385.287628 757.693176,378.589233 
	C757.612122,375.016479 757.253418,371.450012 757.449951,367.298157 
	C779.856445,366.595703 801.832947,366.475830 823.809509,366.355957 
z"/>
<path fill="#FFFFFF" opacity="1.000000" stroke="none" 
	d="
M1907.468628,601.000000 
	C1915.310913,598.965942 1923.952393,597.792725 1931.876099,594.750366 
	C1968.097534,580.842957 1990.682373,554.860046 1998.950928,516.774414 
	C1999.648804,513.559753 1999.694824,510.203491 2000.291260,506.461182 
	C2000.539062,506.009369 2001.000000,506.000000 2001.000000,506.000000 
	C2001.000000,537.593201 2001.000000,569.186462 2001.000000,601.000000 
	C1969.979492,601.000000 1938.958374,601.000000 1907.468628,601.000000 
z"/>
<path fill="#FFFEFE" opacity="1.000000" stroke="none" 
	d="
M2000.080566,95.976212 
	C1999.051147,73.903275 1990.388062,54.801567 1976.444458,38.152641 
	C1961.646118,20.483509 1942.805908,8.860835 1920.226807,3.633083 
	C1916.378418,2.742057 1912.438721,2.244529 1908.270630,1.282607 
	C1938.927734,1.000000 1969.855347,1.000000 2001.000000,1.000000 
	C2001.000000,32.353893 2001.000000,63.708290 2000.770142,95.526337 
	C2000.540283,95.989983 2000.080566,95.976212 2000.080566,95.976212 
z"/>
<path fill="#FDF2F2" opacity="1.000000" stroke="none" 
	d="
M2000.048584,96.442963 
	C2000.080566,95.976212 2000.540283,95.989983 2000.770142,95.994995 
	C2001.000000,232.356659 2001.000000,368.713318 2001.000000,505.534973 
	C2001.000000,506.000000 2000.539062,506.009369 2000.309570,506.016449 
	C2000.054565,495.700653 2000.007202,485.377747 2000.007202,475.054871 
	C2000.006348,349.006500 2000.012451,222.958099 2000.048584,96.442963 
z"/>
<path fill="#03BF64" opacity="1.000000" stroke="none" 
	d="
M1426.533447,253.898560 
	C1430.431763,254.370041 1433.952148,254.595200 1437.284912,255.506226 
	C1449.414795,258.822083 1455.180298,265.757690 1454.820679,279.356903 
	C1454.258179,300.618408 1452.585449,321.850616 1451.376709,343.094818 
	C1451.311401,344.244659 1451.186523,345.391083 1451.047974,347.028564 
	C1471.631714,347.028564 1492.043701,347.028564 1513.476929,347.028564 
	C1512.256592,353.578918 1511.154419,359.494843 1509.977539,365.811340 
	C1500.569946,366.217072 1491.461182,366.881592 1482.348267,366.943207 
	C1466.197388,367.052338 1450.044312,366.787262 1433.891968,366.706329 
	C1432.571167,366.699707 1431.249390,366.903748 1429.462646,367.089752 
	C1424.747314,366.737366 1420.497192,366.305084 1415.632812,365.810333 
	C1415.458252,364.060974 1415.032349,362.321014 1415.159302,360.622375 
	C1415.682129,353.627625 1416.350708,346.643372 1417.008179,339.659241 
	C1417.636719,332.981964 1418.639038,326.320984 1418.873901,319.631653 
	C1419.057861,314.388000 1418.319214,309.112061 1417.992432,303.850372 
	C1417.688599,298.960236 1417.849365,293.986053 1416.979614,289.198944 
	C1415.598999,281.600220 1411.034302,278.240540 1403.515991,278.639526 
	C1397.962891,278.934204 1392.424194,279.495209 1386.569702,279.962250 
	C1386.569702,292.911346 1386.569702,305.491150 1386.569702,318.705872 
	C1392.116577,318.705872 1397.666626,318.705872 1403.823730,318.705872 
	C1403.455200,326.240723 1403.118774,333.120728 1402.768066,340.292664 
	C1385.314087,340.292664 1368.052856,340.292664 1350.252930,340.292664 
	C1350.252930,309.558716 1350.252930,279.014984 1350.252930,247.974350 
	C1328.989380,247.974350 1308.255493,247.974350 1286.502686,247.974350 
	C1287.703125,240.729416 1288.797363,234.126480 1290.118896,226.151337 
	C1300.489868,226.151337 1310.620361,226.046768 1320.747803,226.175873 
	C1335.881592,226.368820 1351.012451,226.800934 1366.146362,226.946793 
	C1368.962769,226.973938 1370.254761,227.967041 1371.028442,230.579102 
	C1373.548828,239.089935 1376.134888,247.586548 1379.001587,255.984253 
	C1379.444824,257.282562 1381.839478,259.151184 1382.746338,258.869781 
	C1396.899536,254.477798 1411.407471,253.624664 1426.533447,253.898560 
z"/>
<path fill="#03BF64" opacity="1.000000" stroke="none" 
	d="
M1180.383545,337.990906 
	C1168.025879,338.459564 1156.054077,338.825226 1144.081543,339.158752 
	C1142.252075,339.209747 1140.413818,339.185974 1138.587402,339.072113 
	C1119.699463,337.894470 1112.876953,329.653931 1115.396606,309.528137 
	C1115.973389,304.920258 1118.256348,300.316742 1120.598022,296.190094 
	C1123.792236,290.560852 1128.701904,287.158569 1135.683105,287.319397 
	C1149.648926,287.641205 1163.620239,287.721252 1177.588745,287.936920 
	C1179.716919,287.969788 1181.842163,288.194183 1183.956055,288.329224 
	C1184.488403,282.398468 1182.814819,279.271332 1177.562988,278.159698 
	C1172.062988,276.995514 1166.343750,275.886597 1160.785522,276.147064 
	C1135.532837,277.330292 1110.303223,279.006287 1085.064575,280.493256 
	C1084.596924,280.520782 1084.120605,280.402344 1083.394775,280.324982 
	C1083.394775,272.992828 1083.394775,265.730133 1083.394775,258.094666 
	C1100.302490,254.666885 1117.162109,253.560379 1134.999268,252.975876 
	C1154.041504,253.329971 1172.195190,253.113785 1190.274902,254.169067 
	C1212.090576,255.442413 1221.472168,265.336639 1222.101196,287.026978 
	C1222.636719,305.485107 1222.413086,323.965332 1222.522339,342.435760 
	C1222.532837,344.218842 1222.523682,346.002014 1222.523682,347.947937 
	C1233.080566,347.947937 1243.040649,347.947937 1253.000610,347.947937 
	C1260.282593,347.947937 1267.564575,347.947937 1275.712402,347.947937 
	C1274.408691,353.631378 1273.486938,358.497986 1272.064941,363.213745 
	C1271.736084,364.303986 1269.705444,365.572418 1268.443848,365.587463 
	C1245.178101,365.864319 1221.910034,366.019897 1198.643188,365.946472 
	C1197.362061,365.942444 1195.395874,363.947357 1194.925171,362.497131 
	C1192.215820,354.149628 1189.861084,345.687073 1187.291504,336.941101 
	C1184.968750,337.274536 1182.869019,337.575958 1180.383545,337.990906 
M1176.401855,322.144897 
	C1178.836060,321.955902 1181.270386,321.766876 1183.830078,321.568146 
	C1183.830078,317.110046 1183.830078,313.153778 1183.830078,308.857422 
	C1173.410156,306.884857 1163.067383,305.919220 1152.678833,308.248749 
	C1149.298828,309.006683 1147.190796,311.312164 1147.229614,315.032593 
	C1147.271973,319.113068 1149.938721,321.536469 1155.485352,321.822205 
	C1162.121094,322.164032 1168.779785,322.062286 1176.401855,322.144897 
z"/>
<path fill="#03BF65" opacity="1.000000" stroke="none" 
	d="
M1104.656494,224.383865 
	C1132.298584,223.463867 1159.588745,222.328781 1186.884277,222.174057 
	C1203.427612,222.080276 1219.921143,223.945663 1235.836060,229.048553 
	C1238.649170,229.950531 1241.356079,231.184219 1244.471069,232.396561 
	C1258.602417,240.117508 1264.524536,252.325684 1264.811523,267.493164 
	C1264.974976,276.126831 1264.795898,284.823303 1263.918091,293.404266 
	C1263.062500,301.766876 1261.120117,310.018341 1259.561279,318.847961 
	C1265.235474,318.847961 1271.396973,318.847961 1278.262939,318.847961 
	C1277.718384,325.922272 1277.386353,332.352264 1276.571045,338.720367 
	C1276.436646,339.768921 1274.218384,341.258148 1272.899536,341.327026 
	C1266.590820,341.656647 1260.260132,341.567352 1253.111084,341.575989 
	C1245.165405,341.525055 1238.046021,341.525055 1230.368042,341.525055 
	C1230.368042,339.067474 1230.378052,337.274902 1230.366455,335.482452 
	C1230.249512,317.333221 1230.415771,299.176300 1229.926636,281.037018 
	C1229.465942,263.952057 1221.870361,253.779083 1205.435791,249.497269 
	C1196.043091,247.050125 1186.117920,246.015167 1176.384277,245.657669 
	C1162.279419,245.139633 1148.130737,245.810303 1134.000732,245.973938 
	C1117.505249,247.163559 1101.009766,248.353165 1083.867310,249.589432 
	C1085.363525,243.079346 1086.759644,236.137772 1088.686279,229.346786 
	C1089.076172,227.972702 1091.338989,226.600143 1092.971191,226.215759 
	C1096.672607,225.344040 1100.519165,225.088196 1104.656494,224.383865 
z"/>
<path fill="#03BF64" opacity="1.000000" stroke="none" 
	d="
M1428.596191,222.039124 
	C1443.099854,222.546646 1457.329590,222.191788 1471.269897,224.030350 
	C1488.977051,226.365707 1497.377563,235.775955 1499.885132,253.602600 
	C1502.458130,271.893372 1500.986938,290.141083 1498.450195,308.329834 
	C1497.993652,311.603119 1497.488403,314.869568 1496.923828,318.694397 
	C1502.975586,318.694397 1508.702271,318.694397 1515.169189,318.694397 
	C1514.816284,326.144196 1514.489502,333.042450 1514.147949,340.252197 
	C1495.819336,340.252197 1477.943481,340.252197 1459.962769,340.252197 
	C1460.836426,327.019287 1461.988770,313.971405 1462.464355,300.898895 
	C1462.814575,291.273895 1462.821167,281.571136 1462.012939,271.984589 
	C1460.807983,257.690002 1453.780273,251.018967 1439.289551,248.911621 
	C1435.461304,248.354889 1431.655029,247.647903 1427.418091,247.074371 
	C1412.960571,246.389526 1399.163208,248.078308 1385.136719,251.016571 
	C1384.765259,250.817154 1384.808472,250.848129 1384.808472,250.848129 
	C1392.207397,234.362366 1404.712769,224.857483 1422.830933,222.991196 
	C1424.628418,222.806030 1426.406616,222.435486 1428.596191,222.039124 
z"/>
<path fill="#07C066" opacity="1.000000" stroke="none" 
	d="
M1315.000000,255.138687 
	C1324.312622,255.138687 1333.125122,255.138687 1342.305908,255.138687 
	C1342.305908,283.546967 1342.305908,311.626923 1342.305908,340.153076 
	C1325.055786,340.153076 1307.694214,340.153076 1289.601074,340.153076 
	C1290.475952,333.613464 1291.217651,327.213013 1292.314575,320.873993 
	C1292.463501,320.013306 1294.348877,318.955566 1295.502075,318.860504 
	C1298.802979,318.588440 1302.140747,318.764709 1305.931152,318.764709 
	C1305.931152,303.953552 1305.931152,289.433868 1305.931152,274.322571 
	C1299.124390,274.322571 1292.388672,274.322571 1285.219116,274.322571 
	C1285.536621,267.778168 1285.825073,261.834015 1286.150024,255.138687 
	C1295.652466,255.138687 1305.076172,255.138687 1315.000000,255.138687 
z"/>
<path fill="#02BF64" opacity="1.000000" stroke="none" 
	d="
M1176.714111,355.507446 
	C1169.251831,365.238373 1159.496826,369.552765 1147.712891,370.312012 
	C1132.230591,371.309479 1116.828003,371.932159 1101.570435,368.196747 
	C1087.996582,364.873535 1079.622070,356.527161 1077.783936,342.647064 
	C1076.875977,335.791107 1076.485229,328.582489 1077.559570,321.802704 
	C1080.516357,303.144714 1095.595703,290.976837 1116.246460,290.063873 
	C1107.553101,299.063141 1106.111572,309.784149 1106.882446,321.236145 
	C1107.892578,336.241516 1115.465088,344.260437 1130.416870,345.999298 
	C1147.407104,347.975250 1164.294922,346.823120 1181.599854,344.564362 
	C1180.303345,348.024445 1178.573853,351.599579 1176.714111,355.507446 
z"/>
<path fill="#05BF65" opacity="1.000000" stroke="none" 
	d="
M1310.070923,366.591797 
	C1302.615723,366.591583 1295.649902,366.591583 1287.873047,366.591583 
	C1288.291260,359.641083 1288.645508,353.752777 1289.021362,347.506836 
	C1326.601196,347.506836 1363.961426,347.506836 1402.173218,347.506836 
	C1401.275879,353.165680 1400.521973,358.784149 1399.350952,364.314331 
	C1399.187134,365.088501 1396.998901,365.837952 1395.711792,365.904663 
	C1387.478394,366.331268 1379.235718,366.793915 1370.994873,366.814545 
	C1350.850342,366.864929 1330.705200,366.681396 1310.070923,366.591797 
z"/>
<path fill="#F3D8D6" opacity="1.000000" stroke="none" 
	d="
M1134.000488,246.371368 
	C1148.130737,245.810303 1162.279419,245.139633 1176.384277,245.657669 
	C1186.117920,246.015167 1196.043091,247.050125 1205.435791,249.497269 
	C1221.870361,253.779083 1229.465942,263.952057 1229.926636,281.037018 
	C1230.415771,299.176300 1230.249512,317.333221 1230.366455,335.482452 
	C1230.378052,337.274902 1230.368042,339.067474 1230.368042,341.525055 
	C1238.046021,341.525055 1245.165405,341.525055 1252.660889,341.678894 
	C1253.024780,343.580841 1253.012329,345.328888 1253.000244,347.512451 
	C1243.040649,347.947937 1233.080566,347.947937 1222.523682,347.947937 
	C1222.523682,346.002014 1222.532837,344.218842 1222.522339,342.435760 
	C1222.413086,323.965332 1222.636719,305.485107 1222.101196,287.026978 
	C1221.472168,265.336639 1212.090576,255.442413 1190.274902,254.169067 
	C1172.195190,253.113785 1154.041504,253.329971 1135.456177,252.910126 
	C1134.661255,250.814529 1134.330688,248.791672 1134.000488,246.371368 
z"/>
<path fill="#03BF64" opacity="1.000000" stroke="none" 
	d="
M1384.743408,250.801926 
	C1384.727783,250.923264 1384.733765,251.059830 1384.774170,251.022263 
	C1384.808472,250.848129 1384.765259,250.817154 1384.743408,250.801926 
z"/>
<path fill="#04C065" opacity="1.000000" stroke="none" 
	d="
M943.803162,322.548737 
	C938.929749,335.113953 934.023193,347.274109 929.333679,359.517395 
	C928.373230,362.024872 927.248779,363.229980 924.410217,363.251465 
	C908.593506,363.371185 892.778137,363.666687 876.962280,363.901855 
	C874.640442,363.936401 872.243530,363.610931 870.012024,364.077301 
	C865.023804,365.119904 862.663513,362.285614 861.202637,358.386169 
	C849.712769,327.718048 838.322815,297.012543 826.858398,266.334839 
	C826.232788,264.660858 825.217712,263.132416 824.383911,261.536224 
	C823.985962,261.662140 823.588013,261.788025 823.190063,261.913910 
	C823.190063,279.738190 823.190063,297.562469 823.190063,315.883057 
	C827.765991,315.883057 832.518799,315.883057 837.301819,315.883057 
	C837.301819,323.272186 837.301819,330.157135 837.301819,337.626312 
	C832.807739,337.626312 828.855774,337.626312 823.994141,337.628326 
	C813.977600,337.630341 804.870667,337.630341 795.686035,337.630341 
	C795.686035,295.564392 795.686035,253.958450 795.686035,212.145813 
	C810.362122,212.145813 824.658752,212.060287 838.950806,212.276794 
	C840.396301,212.298691 842.501648,213.829376 843.125488,215.196274 
	C845.807129,221.072006 848.049683,227.148087 850.555176,233.524094 
	C863.786377,267.642242 876.918030,301.386169 890.040588,335.133667 
	C893.744324,344.658569 893.734192,344.506744 903.977417,344.650909 
	C907.368164,344.698639 908.913025,343.575897 910.186218,340.462769 
	C915.152771,328.318726 920.492493,316.328003 925.606079,304.243286 
	C933.109009,286.512146 940.536987,268.749237 947.996887,250.999878 
	C953.034851,239.427292 958.168152,227.894669 963.045471,216.254791 
	C964.306458,213.245392 965.787903,211.982178 969.254395,212.053146 
	C981.547180,212.304871 993.848389,212.151337 1006.474182,212.151337 
	C1006.474182,254.003098 1006.474182,295.419647 1006.474182,337.207397 
	C989.104797,337.207397 971.708191,337.207397 953.666687,337.207397 
	C954.518799,330.244049 955.342224,323.514771 956.225708,316.295288 
	C960.602478,316.295288 964.848206,316.295288 969.332031,316.295288 
	C969.332031,297.662567 969.332031,279.547699 969.332031,261.432861 
	C968.721130,261.256226 968.110229,261.079620 967.499329,260.903015 
	C959.615112,281.326355 951.730957,301.749695 943.803162,322.548737 
z"/>
<path fill="#05C065" opacity="1.000000" stroke="none" 
	d="
M757.540039,186.923370 
	C767.822815,186.701080 777.646729,186.400650 787.468567,186.456268 
	C816.956909,186.623199 846.444275,186.990829 875.932678,187.103455 
	C879.665894,187.117722 881.496765,188.279846 882.756653,191.873840 
	C889.404419,210.838181 896.316895,229.709717 903.387634,248.867828 
	C905.381226,254.063690 907.124756,259.005188 909.211426,264.919281 
	C919.095093,240.232681 928.673584,216.708023 937.852051,193.028320 
	C939.580566,188.568939 941.810852,187.046234 946.476257,187.061722 
	C984.460999,187.187851 1022.446594,187.086639 1060.431885,187.083908 
	C1062.730835,187.083755 1065.029785,187.333679 1067.496826,187.477020 
	C1067.496826,193.561249 1067.496826,199.270630 1067.496826,205.586029 
	C1065.154175,205.586029 1063.203247,205.586136 1061.252319,205.586014 
	C1029.090698,205.584061 996.928772,205.635254 964.767639,205.503830 
	C961.274963,205.489563 959.440063,206.434738 958.099487,209.809662 
	C953.559265,221.240036 948.656555,232.526443 943.583618,244.475357 
	C930.793640,274.598724 918.352295,304.131683 905.730286,333.587219 
	C904.986389,335.323151 903.007690,337.089050 901.216431,337.693573 
	C898.081482,338.751556 897.635132,335.787140 896.815735,333.648499 
	C890.874817,318.143311 884.943237,302.634399 878.946655,287.150696 
	C870.738892,265.957275 862.476257,244.785049 854.191284,223.244522 
	C852.446838,218.385132 850.522217,213.953644 849.127319,209.361252 
	C848.157532,206.168396 846.360901,205.482330 843.291504,205.520126 
	C830.819885,205.673691 818.345093,205.548874 805.871704,205.591171 
	C789.914673,205.645309 773.957764,205.761597 758.000793,205.851105 
	C752.571289,205.851105 747.141846,205.851105 740.778687,205.851105 
	C741.705872,199.384430 742.521179,193.698257 743.392578,187.620987 
	C747.903259,187.418991 752.491699,187.213486 757.540039,186.923370 
z"/>
<path fill="#05C065" opacity="1.000000" stroke="none" 
	d="
M1014.211975,237.999985 
	C1014.212036,229.530655 1014.212036,221.561310 1014.212036,213.212097 
	C1031.788330,213.212097 1049.007935,213.212097 1067.157837,213.212097 
	C1066.033813,220.702942 1064.991455,228.174789 1063.667847,235.596466 
	C1063.545410,236.283615 1061.656494,237.034775 1060.550659,237.097183 
	C1057.109863,237.291382 1053.651001,237.168350 1049.958496,237.168350 
	C1049.958496,263.651184 1049.958496,289.555573 1049.958496,315.876282 
	C1055.892578,315.876282 1061.656494,315.876282 1067.776001,315.876282 
	C1067.776001,322.539795 1067.889038,328.802704 1067.646484,335.051788 
	C1067.612549,335.928436 1065.842163,337.461151 1064.864380,337.469971 
	C1048.233276,337.620300 1031.600464,337.577759 1014.211914,337.577759 
	C1014.211914,304.292755 1014.211914,271.396362 1014.211975,237.999985 
z"/>
<path fill="#08C067" opacity="1.000000" stroke="none" 
	d="
M988.000122,344.409149 
	C1014.444702,344.409332 1040.389282,344.409332 1066.922119,344.409332 
	C1065.899902,351.810272 1064.972290,358.525452 1063.926025,366.100952 
	C1026.629395,366.100952 989.595825,366.100952 951.812195,366.100952 
	C952.261353,358.731720 952.671814,351.998413 953.134399,344.408966 
	C964.696838,344.408966 976.098450,344.408966 988.000122,344.409149 
z"/>
<path fill="#F4E1DF" opacity="1.000000" stroke="none" 
	d="
M854.237122,223.603745 
	C862.476257,244.785049 870.738892,265.957275 878.946655,287.150696 
	C884.943237,302.634399 890.874817,318.143311 896.815735,333.648499 
	C897.635132,335.787140 898.081482,338.751556 901.216431,337.693573 
	C903.007690,337.089050 904.986389,335.323151 905.730286,333.587219 
	C918.352295,304.131683 930.793640,274.598724 943.543457,244.825562 
	C944.972229,246.668884 946.132446,248.769516 947.644775,250.934998 
	C940.536987,268.749237 933.109009,286.512146 925.606079,304.243286 
	C920.492493,316.328003 915.152771,328.318726 910.186218,340.462769 
	C908.913025,343.575897 907.368164,344.698639 903.977417,344.650909 
	C893.734192,344.506744 893.744324,344.658569 890.040588,335.133667 
	C876.918030,301.386169 863.786377,267.642242 850.968994,233.487183 
	C852.343872,232.900085 853.407959,232.722763 853.471436,232.712189 
	C853.760254,229.276260 853.998718,226.440002 854.237122,223.603745 
z"/>
<path fill="#03BF64" opacity="1.000000" stroke="none" 
	d="
M1797.461304,340.741730 
	C1791.881714,340.846649 1786.761108,340.846649 1781.080933,340.846649 
	C1781.080933,291.092010 1781.080933,242.083969 1781.080933,192.545044 
	C1760.130005,192.545044 1739.743164,192.545044 1718.762939,192.545044 
	C1719.614624,187.210220 1720.099976,182.413330 1721.310181,177.806808 
	C1721.618652,176.632614 1724.215698,175.343002 1725.777588,175.322006 
	C1749.576904,175.002060 1773.378906,174.884293 1797.589111,174.629608 
	C1805.122559,174.876465 1812.247314,175.213089 1819.614258,175.561142 
	C1818.540039,203.752548 1817.473267,231.752136 1816.372559,260.639679 
	C1819.210693,259.947723 1820.767944,259.580994 1822.318604,259.187927 
	C1835.830933,255.762558 1849.535278,254.553360 1863.409790,255.939301 
	C1878.459717,257.442688 1885.998657,264.723877 1885.749878,279.973816 
	C1885.413696,300.575348 1883.671997,321.154266 1882.509399,341.741516 
	C1882.418091,343.358124 1882.139404,344.964172 1881.889648,347.063843 
	C1902.558594,347.063843 1922.815552,347.063843 1943.895630,347.063843 
	C1942.746582,353.092773 1941.814575,358.576263 1940.552124,363.982513 
	C1940.356445,364.820526 1938.676758,365.818970 1937.634033,365.878540 
	C1907.031494,367.626465 1876.431519,367.469452 1845.272583,365.749817 
	C1846.041504,356.424561 1847.027710,347.395172 1847.476562,338.339142 
	C1848.160034,324.543854 1848.844604,310.729584 1848.827148,296.924316 
	C1848.812012,284.994568 1844.445679,281.204285 1832.580322,281.160522 
	C1817.125732,281.103516 1817.125732,281.103516 1817.126099,296.574371 
	C1817.126221,303.720917 1817.126221,310.867462 1817.126221,318.674377 
	C1822.790771,318.674377 1828.167114,318.674377 1833.372070,318.674377 
	C1833.372070,326.246948 1833.372070,333.143616 1833.372070,340.636810 
	C1821.141602,340.636810 1809.531006,340.636810 1797.461304,340.741730 
z"/>
<path fill="#03BF64" opacity="1.000000" stroke="none" 
	d="
M1923.564209,234.487686 
	C1929.913086,242.680695 1931.391235,252.084579 1931.742798,261.610474 
	C1932.394775,279.278381 1932.031494,296.924286 1928.106934,314.302673 
	C1927.821777,315.564697 1927.848877,316.897186 1927.688110,318.666931 
	C1933.547363,318.666931 1939.144287,318.666931 1945.508789,318.666931 
	C1945.170654,326.172119 1944.854614,333.186523 1944.530640,340.377625 
	C1926.116455,340.377625 1908.513428,340.377625 1890.418213,340.377625 
	C1890.780884,336.883636 1891.310547,333.649445 1891.421875,330.400940 
	C1892.066406,311.612915 1893.364746,292.805267 1892.961060,274.036163 
	C1892.618042,258.095581 1883.074341,249.811356 1866.952026,248.967148 
	C1851.973267,248.182831 1837.046509,248.167725 1821.917480,253.051224 
	C1829.806885,236.573822 1841.411011,225.871033 1859.232056,223.232895 
	C1874.480713,220.975601 1889.768799,220.912079 1904.955566,223.920364 
	C1912.155518,225.346542 1918.473755,228.520218 1923.564209,234.487686 
z"/>
<path fill="#05BF65" opacity="1.000000" stroke="none" 
	d="
M1796.460815,366.981262 
	C1777.371338,366.911621 1758.743896,366.739838 1740.116211,366.608246 
	C1733.012695,366.558075 1725.908813,366.600098 1718.298828,366.600098 
	C1718.717041,359.443726 1719.060669,353.562988 1719.438354,347.100159 
	C1744.931030,347.100159 1770.002686,347.100159 1795.536621,347.016785 
	C1808.077881,346.933411 1820.156860,346.933411 1832.817017,346.933411 
	C1831.757324,353.595612 1830.827515,359.442017 1829.805298,365.868530 
	C1818.738037,366.214050 1807.830322,366.554565 1796.460815,366.981262 
z"/>
<path fill="#03BF64" opacity="1.000000" stroke="none" 
	d="
M1613.553223,221.966888 
	C1630.306519,222.249344 1646.637329,222.202988 1662.916504,223.095840 
	C1678.696289,223.961273 1694.392456,225.960175 1710.169189,231.653519 
	C1709.728638,240.400864 1709.738525,249.380676 1708.721313,258.242554 
	C1707.204834,271.453735 1705.035889,284.593323 1702.923340,297.727783 
	C1702.703735,299.092712 1701.080688,301.189667 1699.952026,301.296844 
	C1692.035522,302.048737 1684.077759,302.366974 1675.471558,302.861938 
	C1675.471558,300.614136 1675.459229,298.830566 1675.473511,297.047180 
	C1675.595215,281.888916 1675.583496,266.727356 1675.947266,251.574860 
	C1676.034668,247.931610 1674.664429,246.569489 1671.439819,245.919525 
	C1654.023926,242.409195 1636.383911,241.548630 1618.745972,242.540482 
	C1608.700073,243.105423 1598.513916,244.513931 1588.811890,247.113754 
	C1572.004517,251.617554 1561.569336,263.196777 1559.146606,280.424988 
	C1557.679199,290.858917 1557.331055,301.746460 1558.531494,312.194580 
	C1560.695435,331.031219 1570.338257,340.883881 1589.142822,344.791077 
	C1598.211914,346.675446 1607.560547,347.861786 1616.814087,348.089844 
	C1646.952271,348.832672 1677.108154,349.061310 1707.015381,344.132263 
	C1707.650269,344.027618 1708.317505,344.119080 1709.809204,344.119080 
	C1708.738770,350.144226 1708.045410,356.027130 1706.457520,361.657837 
	C1706.036499,363.150574 1702.960938,364.545715 1700.941040,364.831421 
	C1687.444458,366.740295 1673.945190,368.943634 1660.366089,369.872284 
	C1645.264771,370.905090 1630.077759,370.684113 1614.463013,371.073425 
	C1599.585815,370.724731 1585.187378,370.057556 1571.036621,367.033691 
	C1560.404541,364.761780 1550.087891,361.612640 1541.408691,354.618713 
	C1529.921753,345.362305 1525.907349,332.468903 1524.414185,318.601105 
	C1522.660156,302.311432 1522.698364,285.991669 1526.246094,269.889923 
	C1531.427979,246.371246 1547.284058,233.285263 1569.719360,228.228470 
	C1583.924805,225.026627 1598.628174,224.032959 1613.553223,221.966888 
z"/>
<path fill="#03BF64" opacity="1.000000" stroke="none" 
	d="
M1584.090210,336.065796 
	C1573.734497,331.524719 1567.727173,323.733978 1566.753662,313.049408 
	C1565.839478,303.017517 1565.217651,292.716339 1566.468140,282.785583 
	C1568.450928,267.039062 1578.220093,256.721710 1593.699829,253.302963 
	C1603.520142,251.134109 1613.767700,250.109451 1623.834473,250.036011 
	C1638.413818,249.929611 1653.002808,251.147949 1667.803589,251.810883 
	C1667.803589,269.498291 1667.803589,285.765747 1667.803589,302.247040 
	C1656.962769,302.247040 1646.091797,302.247040 1634.528320,302.247040 
	C1634.528320,291.968018 1634.528320,282.263458 1634.528320,272.249573 
	C1630.967651,271.779327 1628.046631,271.136993 1625.109009,271.048584 
	C1609.882568,270.590302 1604.188232,275.957001 1603.564819,291.129852 
	C1602.705200,312.050842 1608.661133,319.033051 1629.739258,318.684814 
	C1655.181152,318.264435 1680.601196,316.534210 1706.030640,315.367920 
	C1707.499268,315.300568 1708.966675,315.206329 1710.665771,315.111725 
	C1710.665771,322.417877 1710.665771,329.490356 1710.665771,337.258301 
	C1698.114502,338.490814 1685.912598,340.393005 1673.667114,340.736816 
	C1651.885986,341.348297 1630.066284,341.449860 1608.287964,340.851318 
	C1600.305542,340.631927 1592.394165,337.818604 1584.090210,336.065796 
z"/>
<path fill="#06BF65" opacity="1.000000" stroke="none" 
	d="
M1773.617920,290.000061 
	C1773.617676,306.950226 1773.617676,323.400391 1773.617676,340.224915 
	C1755.605347,340.224915 1738.063965,340.224915 1719.903564,340.224915 
	C1720.905762,333.056396 1721.880737,326.082642 1722.909180,318.727051 
	C1727.887695,318.727051 1732.320068,318.727051 1736.993408,318.727051 
	C1736.993408,287.025574 1736.993408,255.790115 1736.993408,224.014267 
	C1730.430298,223.512695 1723.888184,223.012726 1716.720215,222.464920 
	C1717.100342,214.872467 1717.462769,207.632111 1717.838745,200.121048 
	C1736.510620,200.121048 1754.753540,200.121048 1773.618164,200.121048 
	C1773.618164,229.984283 1773.618164,259.742157 1773.617920,290.000061 
z"/>
<path fill="#FF6C02" opacity="1.000000" stroke="none" 
	d="
M154.536880,212.025406 
	C171.263168,211.939697 187.528107,211.939697 204.645676,211.939697 
	C203.429810,220.784256 202.332993,228.762772 201.200699,236.999390 
	C192.679886,236.999390 184.730637,236.999390 176.464279,236.999390 
	C176.464279,264.376831 176.464279,291.415985 176.464279,318.806580 
	C186.742355,318.806580 196.967102,318.806580 207.457199,318.806580 
	C209.268799,303.043427 211.083664,287.251770 212.984573,270.711517 
	C222.739304,270.711517 232.145447,270.711517 241.980011,270.711517 
	C241.980011,292.336182 241.980011,314.521576 241.980011,337.615997 
	C213.662292,337.615997 185.290787,337.615997 156.462311,337.730225 
	C149.879990,337.844482 143.754639,337.844482 137.267929,337.844482 
	C137.267929,295.730469 137.267929,254.250122 137.267929,212.111115 
	C142.873779,212.111115 148.474640,212.111115 154.536880,212.025406 
z"/>
<path fill="#FF6D04" opacity="1.000000" stroke="none" 
	d="
M154.546234,344.259827 
	C168.306000,344.243774 181.606445,344.378815 194.907166,344.414276 
	C211.378357,344.458191 227.849777,344.419464 244.321091,344.416504 
	C246.107986,344.416199 247.894882,344.416473 250.235428,344.416473 
	C250.235428,319.364288 250.235428,294.837555 250.235428,270.521149 
	C261.393433,270.521149 271.963715,270.521149 283.805481,270.521149 
	C283.884674,286.163727 283.960419,301.130798 284.035767,316.879639 
	C284.081268,318.108154 284.127228,318.554932 284.173187,319.001709 
	C284.400635,324.929993 284.966095,330.868988 284.778717,336.784119 
	C284.475159,346.366394 283.677460,355.932953 283.031799,366.425842 
	C240.443390,366.627045 198.183624,366.826691 155.459808,367.098541 
	C127.071739,366.740845 99.147743,366.310944 70.657021,365.872345 
	C71.070183,358.498260 71.448486,351.746216 71.861954,344.366699 
	C99.550255,344.366699 126.818642,344.366699 154.546234,344.259827 
z"/>
<path fill="#FF6C02" opacity="1.000000" stroke="none" 
	d="
M92.000549,337.566711 
	C85.375229,337.566528 79.249763,337.566528 72.393593,337.566528 
	C73.315590,330.068268 74.158119,323.216309 75.044533,316.007416 
	C80.726723,316.007416 86.002098,316.007416 91.554565,316.007416 
	C91.554565,289.679047 91.554565,263.759644 91.554565,237.184402 
	C84.988762,237.184402 78.283211,237.184402 70.980812,237.184402 
	C71.451912,228.784241 71.884537,221.070236 72.331139,213.106842 
	C91.384995,213.106842 109.959946,213.106842 128.841537,213.106842 
	C128.841537,254.447647 128.841537,295.678192 128.841537,337.566864 
	C116.708954,337.566864 104.604675,337.566864 92.000549,337.566711 
z"/>
<path fill="#FF6F07" opacity="1.000000" stroke="none" 
	d="
M154.545609,186.248688 
	C171.550232,186.583054 188.095337,187.022293 204.885010,187.468018 
	C204.885010,193.591995 204.885010,199.315308 204.885010,205.635315 
	C188.707901,205.635315 172.814011,205.635315 156.462524,205.746552 
	C130.514343,205.768509 105.023758,205.678757 79.533173,205.590836 
	C77.557152,205.584030 75.581093,205.589951 72.972885,205.589951 
	C73.798439,199.926331 74.310272,194.672516 75.508652,189.580261 
	C75.765877,188.487244 78.490135,187.341156 80.105858,187.299377 
	C96.596657,186.872971 113.092773,186.633621 129.588409,186.419876 
	C137.753220,186.314087 145.920120,186.370514 154.545609,186.248688 
z"/>
<path fill="#FF6C02" opacity="1.000000" stroke="none" 
	d="
M301.851746,256.359955 
	C309.411652,239.112595 323.591644,230.692596 340.728088,227.309647 
	C354.335175,224.623413 368.292450,223.711182 382.945312,221.992065 
	C384.866455,221.883392 385.936493,221.793991 387.006561,221.704590 
	C387.453125,221.735947 387.899719,221.767303 388.671509,221.705872 
	C402.144043,222.048767 415.354004,221.844208 428.418762,223.123169 
	C438.831635,224.142548 449.291107,226.209457 459.334412,229.158264 
	C479.286591,235.016434 491.064270,248.916916 494.661865,269.299042 
	C497.936829,287.853302 497.425415,306.483521 493.620453,324.939026 
	C488.885834,347.903717 473.680145,360.260132 451.799286,365.954742 
	C431.109161,371.339447 410.010345,370.924530 388.461792,371.097839 
	C370.669800,370.891296 353.375366,370.200623 336.445221,366.024323 
	C324.070496,362.971710 312.849670,357.897644 304.758423,347.024719 
	C299.007629,337.874939 296.160980,328.044617 295.577820,317.660461 
	C294.419739,297.038269 293.659058,276.406830 301.851746,256.359955 
M370.136017,244.522308 
	C351.700348,248.508423 338.689941,258.489594 334.274567,277.574188 
	C331.387970,290.050781 331.820953,302.669861 333.521545,315.284546 
	C335.931854,333.163940 346.062164,343.673096 363.706512,347.066132 
	C385.391418,351.236145 407.111542,350.672150 428.662933,346.568695 
	C443.742401,343.697540 454.395691,335.111206 457.735992,319.394501 
	C460.813293,304.915039 460.706207,290.328156 458.368011,275.731659 
	C455.526611,257.993652 444.580292,248.297485 427.515259,244.971649 
	C408.724731,241.309555 389.835724,241.242233 370.136017,244.522308 
z"/>
<path fill="#FDF1F1" opacity="1.000000" stroke="none" 
	d="
M284.450836,318.955322 
	C284.127228,318.554932 284.081268,318.108154 284.104187,317.329834 
	C284.648254,317.317780 285.123474,317.637268 285.598694,317.956757 
	C285.308624,318.274139 285.018555,318.591522 284.450836,318.955322 
z"/>
<path fill="#FF6C02" opacity="1.000000" stroke="none" 
	d="
M510.606812,175.192474 
	C522.821350,174.946228 534.640015,174.684952 546.457886,174.716797 
	C563.941101,174.763916 581.423950,175.010330 598.906555,175.201859 
	C600.373535,175.217926 601.838074,175.460480 602.763916,175.547226 
	C601.926147,214.709030 601.095154,253.553513 600.251465,292.989227 
	C605.229187,292.989227 609.174438,293.050720 613.115051,292.942902 
	C614.019043,292.918152 615.191101,292.565186 615.757935,291.931946 
	C620.591431,286.531860 625.313721,281.032166 630.639587,274.906372 
	C625.229980,274.597260 620.832336,274.345947 615.866394,274.062195 
	C616.320557,267.734558 616.754822,261.684174 617.219971,255.203140 
	C637.042297,255.203140 656.487122,255.203140 676.387573,255.251007 
	C676.606873,255.713791 676.370422,256.128693 675.827087,256.961731 
	C662.794861,273.317749 650.069580,289.255646 637.299744,305.249329 
	C645.222534,316.487854 653.543091,326.940155 660.289856,338.325134 
	C664.960876,346.207245 670.723328,348.489349 678.997864,346.941040 
	C695.434326,346.941040 711.870789,346.941040 728.957886,346.941040 
	C727.886108,352.480255 726.749817,357.245850 726.108582,362.077118 
	C725.716858,365.028076 724.455505,365.958160 721.605164,366.009583 
	C707.709656,366.260132 693.817078,366.669983 679.459290,367.095276 
	C665.682373,366.768158 652.362854,366.501953 639.063965,365.829041 
	C637.039551,365.726562 634.274048,364.234344 633.272522,362.543243 
	C626.496826,351.102661 619.950256,339.518250 613.643127,327.811401 
	C609.784668,320.649750 610.035034,320.514862 601.109497,321.087372 
	C601.109497,335.761566 601.109497,350.489777 601.109497,365.536621 
	C570.688660,367.849731 540.794128,366.890533 510.447510,366.131714 
	C507.867493,366.086151 505.740570,365.942596 503.391937,365.784058 
	C503.391937,359.741333 503.391937,353.781616 503.391937,347.103882 
	C506.009338,347.103882 508.072479,347.103882 511.028259,347.111053 
	C529.486023,347.118225 547.051147,347.118225 564.602417,347.118225 
	C564.602417,295.262451 564.602417,244.192383 564.602417,192.846207 
	C546.548950,192.846207 528.778259,192.846207 511.007538,192.846207 
	C508.412994,192.666183 505.818420,192.486160 502.544586,192.259003 
	C503.407166,186.603973 504.217468,181.291885 505.062897,175.749298 
	C506.997559,175.583649 508.604034,175.446106 510.606812,175.192474 
z"/>
<path fill="#FF6B01" opacity="1.000000" stroke="none" 
	d="
M511.963989,340.841003 
	C509.510773,340.660431 507.057556,340.479828 504.073761,340.260193 
	C505.030304,333.730072 505.811707,327.491669 506.979523,321.326447 
	C507.170929,320.316071 509.063873,319.627991 511.026245,318.797333 
	C514.818909,318.803711 517.755798,318.803711 520.716309,318.803711 
	C520.716309,286.811005 520.716309,255.426361 520.716309,223.510025 
	C517.262146,223.510025 514.119080,223.510025 510.975983,223.510025 
	C500.543396,221.990341 500.515839,221.989273 500.944672,210.991882 
	C501.084839,207.396729 501.408997,203.808731 501.677490,199.790817 
	C504.846069,199.790817 507.471863,199.790817 511.001495,199.797852 
	C526.818848,199.804901 541.732361,199.804901 556.693848,199.804901 
	C556.693848,246.989395 556.693848,293.583496 556.693848,340.427826 
	C553.458862,340.427826 550.638000,340.402252 547.817749,340.432281 
	C535.866394,340.559540 523.915222,340.703278 511.963989,340.841003 
z"/>
<path fill="#FCEAE9" opacity="1.000000" stroke="none" 
	d="
M511.937866,341.229370 
	C523.915222,340.703278 535.866394,340.559540 547.817749,340.432281 
	C550.638000,340.402252 553.458862,340.427826 556.693848,340.427826 
	C556.693848,293.583496 556.693848,246.989395 556.693848,199.804901 
	C541.732361,199.804901 526.818848,199.804901 511.444397,199.708893 
	C510.989960,197.643005 510.996490,195.673111 511.005280,193.274719 
	C528.778259,192.846207 546.548950,192.846207 564.602417,192.846207 
	C564.602417,244.192383 564.602417,295.262451 564.602417,347.118225 
	C547.051147,347.118225 529.486023,347.118225 511.459412,347.028442 
	C511.302490,345.165009 511.607117,343.391357 511.937866,341.229370 
z"/>
<path fill="#FCEAE9" opacity="1.000000" stroke="none" 
	d="
M510.982483,223.944214 
	C514.119080,223.510025 517.262146,223.510025 520.716309,223.510025 
	C520.716309,255.426361 520.716309,286.811005 520.716309,318.803711 
	C517.755798,318.803711 514.818909,318.803711 511.432709,318.708313 
	C510.985260,287.201385 510.987122,255.789902 510.982483,223.944214 
z"/>
<path fill="#03C065" opacity="1.000000" stroke="none" 
	d="
M757.999146,238.169983 
	C751.888855,238.169983 745.778503,238.169983 738.931519,238.169983 
	C739.362061,229.471512 739.757263,221.486023 740.187561,212.792038 
	C745.895203,212.792038 750.985413,212.792038 756.995178,212.792053 
	C767.811523,212.792084 777.708252,212.792084 787.538574,212.792084 
	C787.747375,214.013992 787.899780,214.489838 787.899963,214.965744 
	C787.915527,254.528397 787.887512,294.091156 787.984680,333.653564 
	C787.992432,336.813995 786.803711,337.629211 783.904724,337.618469 
	C775.270508,337.586517 766.635559,337.757019 758.000854,337.848389 
	C752.220032,337.848389 746.439209,337.848389 740.263977,337.848389 
	C741.287964,330.311554 742.230042,323.377655 743.236450,315.970306 
	C748.213745,315.970306 752.644409,315.970306 757.971191,315.949341 
	C759.268982,314.666595 760.017151,313.405914 760.020935,312.142975 
	C760.091003,288.753937 760.104797,265.364471 759.984070,241.975800 
	C759.977539,240.703812 758.690247,239.438431 757.999146,238.169983 
z"/>
<path fill="#FF6C02" opacity="1.000000" stroke="none" 
	d="
M677.297974,267.130798 
	C677.883301,266.553192 678.663452,266.076904 679.024475,265.382690 
	C683.694275,256.402649 691.080322,254.046417 700.837097,254.972580 
	C709.900085,255.832886 719.108948,255.156143 729.705017,255.156143 
	C728.368713,261.537506 727.227600,267.397156 725.824036,273.193268 
	C725.639221,273.956177 724.131348,274.426331 723.195862,274.961517 
	C722.942688,275.106323 722.522095,275.067657 722.211243,274.986816 
	C704.426453,270.360535 695.865051,282.994171 686.144043,294.569916 
	C691.780334,302.063049 697.462158,309.785309 703.396606,317.308228 
	C704.203857,318.331604 706.267090,318.749512 707.762207,318.779572 
	C715.056213,318.926178 722.354675,318.845978 729.845093,318.845978 
	C729.845093,325.549438 730.026306,331.822754 729.647583,338.062073 
	C729.591492,338.985901 726.899841,340.458313 725.412292,340.477295 
	C710.251099,340.670959 695.086670,340.615936 679.065186,340.639893 
	C675.603638,339.989471 671.847961,340.200684 670.583679,338.528381 
	C662.383240,327.681366 654.725159,316.424316 646.908813,305.329132 
	C657.211792,292.378510 667.254883,279.754639 677.297974,267.130798 
z"/>
<path fill="#FF6D04" opacity="1.000000" stroke="none" 
	d="
M679.459717,247.974457 
	C658.771667,248.062302 638.545410,248.062302 617.383667,248.062302 
	C618.748047,241.055801 619.765442,234.881454 621.316467,228.844162 
	C621.561646,227.889832 624.201477,227.054459 625.758606,227.009399 
	C643.193787,226.504913 660.633667,226.166351 678.533081,225.694916 
	C687.141724,225.737457 695.291870,225.789032 703.436890,226.020935 
	C711.731812,226.257126 720.027954,226.577179 728.306335,227.121933 
	C729.374146,227.192184 731.171814,228.795853 731.209351,229.745407 
	C731.385803,234.209351 730.931335,238.693939 730.965454,243.169174 
	C730.993225,246.814331 729.532227,247.973892 725.855042,247.930832 
	C710.545776,247.751556 695.233032,247.874512 679.459717,247.974457 
z"/>
<path fill="#07C067" opacity="1.000000" stroke="none" 
	d="
M824.204529,366.255981 
	C801.832947,366.475830 779.856445,366.595703 757.440002,366.895081 
	C751.266907,366.702484 745.533630,366.330383 739.001343,365.906403 
	C739.001343,359.626556 738.743896,353.682434 739.210266,347.795593 
	C739.308044,346.561462 741.987549,344.741974 743.621460,344.571381 
	C748.068359,344.107056 752.592468,344.381195 758.001465,344.362457 
	C780.611572,344.288086 802.306213,344.213928 824.000793,344.139801 
	C828.115173,344.139801 832.229553,344.139801 837.175293,344.139801 
	C836.102295,351.833344 835.137756,358.748627 834.104675,366.155975 
	C830.532654,366.155975 827.566101,366.155975 824.204529,366.255981 
z"/>
<path fill="#FBE5E5" opacity="1.000000" stroke="none" 
	d="
M824.000366,343.690613 
	C802.306213,344.213928 780.611572,344.288086 758.458740,344.252869 
	C758.000366,342.345062 758.000183,340.546661 758.000427,338.298309 
	C766.635559,337.757019 775.270508,337.586517 783.904724,337.618469 
	C786.803711,337.629211 787.992432,336.813995 787.984680,333.653564 
	C787.887512,294.091156 787.915527,254.528397 787.899963,214.965744 
	C787.899780,214.489838 787.747375,214.013992 787.538574,212.792084 
	C777.708252,212.792084 767.811523,212.792084 757.453857,212.699860 
	C757.328430,210.617706 757.663940,208.627777 758.000122,206.244476 
	C773.957764,205.761597 789.914673,205.645309 805.871704,205.591171 
	C818.345093,205.548874 830.819885,205.673691 843.291504,205.520126 
	C846.360901,205.482330 848.157532,206.168396 849.127319,209.361252 
	C850.522217,213.953644 852.446838,218.385132 854.191284,223.244522 
	C853.998718,226.440002 853.760254,229.276260 853.471436,232.712189 
	C853.407959,232.722763 852.343872,232.900085 850.865967,233.114304 
	C848.049683,227.148087 845.807129,221.072006 843.125488,215.196274 
	C842.501648,213.829376 840.396301,212.298691 838.950806,212.276794 
	C824.658752,212.060287 810.362122,212.145813 795.686035,212.145813 
	C795.686035,253.958450 795.686035,295.564392 795.686035,337.630341 
	C804.870667,337.630341 813.977600,337.630341 823.542664,337.740479 
	C824.000549,339.647583 824.000244,341.444519 824.000366,343.690613 
z"/>
<path fill="#FCEAE9" opacity="1.000000" stroke="none" 
	d="
M677.009277,266.946045 
	C667.254883,279.754639 657.211792,292.378510 646.908813,305.329132 
	C654.725159,316.424316 662.383240,327.681366 670.583679,338.528381 
	C671.847961,340.200684 675.603638,339.989471 678.606689,340.747375 
	C679.004028,342.588287 679.001831,344.331177 678.998779,346.507568 
	C670.723328,348.489349 664.960876,346.207245 660.289856,338.325134 
	C653.543091,326.940155 645.222534,316.487854 637.299744,305.249329 
	C650.069580,289.255646 662.794861,273.317749 675.804199,257.200745 
	C676.813049,258.217377 678.145142,259.421875 678.128052,260.606873 
	C678.098328,262.664734 677.234619,264.710480 677.009277,266.946045 
z"/>
<path fill="#FBE5E5" opacity="1.000000" stroke="none" 
	d="
M757.998169,238.566223 
	C758.690247,239.438431 759.977539,240.703812 759.984070,241.975800 
	C760.104797,265.364471 760.091003,288.753937 760.020935,312.142975 
	C760.017151,313.405914 759.268982,314.666595 758.432861,315.879150 
	C757.823425,309.244873 757.579590,302.660736 757.492188,296.074524 
	C757.398193,288.995758 757.400452,281.914642 757.452881,274.835236 
	C757.516357,266.269592 757.670715,257.704559 757.797485,249.139435 
	C757.847717,245.746872 757.929688,242.354782 757.998169,238.566223 
z"/>
<path fill="#FDEFEF" opacity="1.000000" stroke="none" 
	d="
M386.994171,221.362854 
	C385.936493,221.793991 384.866455,221.883392 383.397186,221.907272 
	C383.761169,220.942535 384.524353,220.043335 385.287537,219.144135 
	C385.852295,219.769775 386.417053,220.395432 386.994171,221.362854 
z"/>
<path fill="#F5D9D8" opacity="1.000000" stroke="none" 
	d="
M1175.915161,322.148773 
	C1168.779785,322.062286 1162.121094,322.164032 1155.485352,321.822205 
	C1149.938721,321.536469 1147.271973,319.113068 1147.229614,315.032593 
	C1147.190796,311.312164 1149.298828,309.006683 1152.678833,308.248749 
	C1163.067383,305.919220 1173.410156,306.884857 1183.830078,308.857422 
	C1183.830078,313.153778 1183.830078,317.110046 1183.830078,321.568146 
	C1181.270386,321.766876 1178.836060,321.955902 1175.915161,322.148773 
z"/>
<path fill="#FDEBE8" opacity="1.000000" stroke="none" 
	d="
M370.534576,244.382935 
	C389.835724,241.242233 408.724731,241.309555 427.515259,244.971649 
	C444.580292,248.297485 455.526611,257.993652 458.368011,275.731659 
	C460.706207,290.328156 460.813293,304.915039 457.735992,319.394501 
	C454.395691,335.111206 443.742401,343.697540 428.662933,346.568695 
	C407.111542,350.672150 385.391418,351.236145 363.706512,347.066132 
	C346.062164,343.673096 335.931854,333.163940 333.521545,315.284546 
	C331.820953,302.669861 331.387970,290.050781 334.274567,277.574188 
	C338.689941,258.489594 351.700348,248.508423 370.534576,244.382935 
M404.999481,342.705261 
	C412.244812,341.785980 419.613129,341.415680 426.708466,339.826660 
	C439.279419,337.011322 448.411438,329.538635 450.043213,316.326385 
	C451.477264,304.715088 452.200134,292.747742 451.065643,281.150085 
	C449.355316,263.665894 441.754761,255.994659 424.846832,252.465332 
	C408.260437,249.003098 391.410461,248.596924 374.694061,251.364120 
	C354.571381,254.695206 343.512726,264.836090 341.346832,283.017609 
	C340.140625,293.142975 340.301971,303.688507 341.653137,313.803436 
	C343.906921,330.675140 351.402130,338.265320 368.280762,340.730713 
	C380.058685,342.451080 392.128113,342.175690 404.999481,342.705261 
z"/>
<path fill="#FF6C02" opacity="1.000000" stroke="none" 
	d="
M404.533417,342.748505 
	C392.128113,342.175690 380.058685,342.451080 368.280762,340.730713 
	C351.402130,338.265320 343.906921,330.675140 341.653137,313.803436 
	C340.301971,303.688507 340.140625,293.142975 341.346832,283.017609 
	C343.512726,264.836090 354.571381,254.695206 374.694061,251.364120 
	C391.410461,248.596924 408.260437,249.003098 424.846832,252.465332 
	C441.754761,255.994659 449.355316,263.665894 451.065643,281.150085 
	C452.200134,292.747742 451.477264,304.715088 450.043213,316.326385 
	C448.411438,329.538635 439.279419,337.011322 426.708466,339.826660 
	C419.613129,341.415680 412.244812,341.785980 404.533417,342.748505 
M384.914429,273.199646 
	C382.859924,276.477814 379.333130,279.628174 379.035309,283.058838 
	C378.238556,292.236908 378.079346,301.617004 379.079956,310.762207 
	C380.035980,319.499878 385.494751,322.958160 394.983673,323.000916 
	C405.651093,323.048981 411.570770,319.608521 412.701202,310.867065 
	C413.776367,302.552826 413.970215,293.946442 413.146484,285.607330 
	C411.961609,273.612274 405.255920,269.042389 393.205536,270.731537 
	C390.621216,271.093781 388.131592,272.131989 384.914429,273.199646 
z"/>
<path fill="#FDEFEE" opacity="1.000000" stroke="none" 
	d="
M385.256409,273.029236 
	C388.131592,272.131989 390.621216,271.093781 393.205536,270.731537 
	C405.255920,269.042389 411.961609,273.612274 413.146484,285.607330 
	C413.970215,293.946442 413.776367,302.552826 412.701202,310.867065 
	C411.570770,319.608521 405.651093,323.048981 394.983673,323.000916 
	C385.494751,322.958160 380.035980,319.499878 379.079956,310.762207 
	C378.079346,301.617004 378.238556,292.236908 379.035309,283.058838 
	C379.333130,279.628174 382.859924,276.477814 385.256409,273.029236 
z"/>
</svg>