<svg version="1.1" id="Layer_1" xmlns="http://www.w3.org/2000/svg" xmlns:xlink="http://www.w3.org/1999/xlink" x="0px" y="0px"
	 width="100%" viewBox="0 0 512 512" enable-background="new 0 0 512 512" xml:space="preserve">
<path fill="#000000" opacity="1.000000" stroke="none" 
	d="
M281.000000,513.000000 
	C187.768570,513.000000 94.537132,513.000000 1.000000,513.000000 
	C1.000000,472.979614 1.000000,432.958466 1.301373,392.153503 
	C5.056592,397.798584 8.272606,404.188690 14.305571,408.991760 
	C26.386971,418.610291 47.318600,418.764435 59.177608,408.286072 
	C75.401207,393.951233 76.492447,371.276855 61.925121,354.687531 
	C68.044243,343.330444 74.058609,332.316986 80.164497,321.354462 
	C81.969383,318.113953 84.032524,315.017334 86.367386,311.920715 
	C95.152962,314.010773 103.548485,316.034912 112.178291,318.424988 
	C117.842125,318.856567 123.273705,319.037018 128.700363,318.940460 
	C131.518692,318.890320 134.328323,318.350403 137.569458,318.027039 
	C154.844116,316.659058 169.399689,309.547119 183.141144,300.381409 
	C189.944626,307.997955 196.578934,315.350647 203.310928,322.612793 
	C211.833450,331.806458 220.435440,340.926483 228.904846,350.399323 
	C224.838272,356.014282 220.465576,361.057281 216.990768,366.657379 
	C210.849457,376.554932 206.423721,387.352295 205.153625,398.953094 
	C204.063171,408.913422 204.300034,419.019043 203.586777,429.173340 
	C196.934738,430.858765 190.645538,432.429993 184.357025,434.003998 
	C172.235657,437.037872 160.114670,440.073303 147.669846,442.967957 
	C146.923096,442.326508 146.407654,441.877380 146.090439,441.316223 
	C137.228836,425.640472 120.371765,421.600830 106.288933,425.451324 
	C86.981361,430.730377 76.424461,449.467804 81.043579,468.745148 
	C84.927750,484.955292 101.673943,498.173492 120.415710,495.157776 
	C135.860428,492.672577 145.568375,484.438629 150.013840,469.699524 
	C150.874649,466.845459 151.228210,463.838379 152.225800,460.922729 
	C163.904587,458.286804 175.162399,455.582458 186.445938,452.990051 
	C193.904449,451.276459 201.399887,449.723694 208.927002,448.473877 
	C215.263748,465.604462 225.376709,479.646912 239.143799,491.501526 
	C251.548828,501.040741 264.784729,508.223022 280.061432,511.139221 
	C280.477539,511.218658 280.691681,512.355957 281.000000,513.000000 
z"/>
<path fill="#000000" opacity="1.000000" stroke="none" 
	d="
M48.000000,0.999999 
	C110.687561,1.000000 173.375122,1.000000 236.846558,1.301427 
	C236.839203,2.072515 236.098206,2.678446 235.249207,2.991462 
	C221.909058,7.909797 211.214035,22.892519 212.113663,36.686272 
	C212.859283,48.118580 217.167999,58.357941 226.836823,65.149429 
	C235.287170,71.085060 244.811432,73.399803 255.318359,71.334038 
	C264.834564,69.463051 272.018097,64.343712 278.116943,57.320126 
	C292.521973,62.783966 306.733246,67.924683 320.954712,73.491272 
	C319.593689,84.950684 316.725586,95.885330 318.985382,107.147781 
	C320.374298,114.069870 321.618439,121.021004 322.545258,127.978500 
	C318.067047,129.647110 313.949646,131.245041 309.878998,132.954330 
	C291.283081,140.762848 272.698883,148.599380 254.113113,156.432129 
	C239.472992,162.602081 224.836746,168.781204 210.115250,174.598633 
	C203.821259,163.924301 196.715149,154.278931 187.181366,146.813599 
	C181.367889,142.261414 175.374359,137.599823 168.754959,134.493301 
	C157.979568,129.436356 146.653061,126.091492 134.535141,124.735603 
	C119.431381,123.045631 105.200577,125.362640 91.014023,129.586426 
	C80.604630,107.469635 70.231163,85.717140 59.999165,63.651585 
	C61.693054,61.459808 63.291351,59.616905 64.790779,57.696796 
	C79.009178,39.489201 71.315643,11.367880 49.877701,2.969177 
	C49.112148,2.669255 48.619720,1.672166 48.000000,0.999999 
z"/>
<path fill="#000000" opacity="1.000000" stroke="none" 
	d="
M513.000000,313.000000 
	C513.000000,379.592194 513.000000,446.184418 513.000000,513.000000 
	C449.312622,513.000000 385.624969,513.000000 321.152313,512.674316 
	C323.826752,511.226288 327.305939,510.160980 330.741974,508.970978 
	C342.509521,504.895386 353.657440,499.680664 363.313110,491.036316 
	C367.283600,487.227539 371.023315,483.653656 374.564728,479.893036 
	C383.653442,470.241791 389.994965,458.863617 393.898834,446.324768 
	C397.764099,433.910004 399.464355,421.226166 398.201996,407.990875 
	C396.954498,394.911713 393.748352,382.662445 388.051208,370.716675 
	C389.469818,369.617218 390.710663,368.823303 391.943176,368.016693 
	C412.329987,354.674011 432.715790,341.329865 453.427307,328.117432 
	C462.779388,334.884583 472.306091,338.462799 483.985779,336.169708 
	C497.141418,333.586823 505.685822,326.220795 511.051270,314.391571 
	C511.336639,313.762512 512.334045,313.456451 513.000000,313.000000 
z"/>
<path fill="#000000" opacity="1.000000" stroke="none" 
	d="
M513.000000,118.000000 
	C513.000000,175.020889 513.000000,232.041794 512.698608,289.846558 
	C511.927429,289.839417 511.333984,289.096283 511.006195,288.250275 
	C504.178284,270.626465 486.705017,262.343567 469.621124,266.288055 
	C448.068909,271.264191 437.179871,293.249084 443.492615,312.969238 
	C437.451111,316.473907 431.689911,319.828766 426.109589,323.461548 
	C409.981537,333.960846 393.926270,344.572021 377.534210,354.988159 
	C368.145233,342.918030 356.644318,334.063904 343.056030,327.488525 
	C343.622009,325.939667 344.297119,324.796814 344.734711,323.569244 
	C354.201569,297.013763 363.629486,270.444336 373.091766,243.887192 
	C379.143829,226.901352 385.239227,209.930984 391.721436,192.977554 
	C399.875885,194.000717 407.626953,195.838699 415.371674,195.812180 
	C428.579468,195.766983 441.762726,193.877075 453.719421,187.898651 
	C462.131226,183.692688 469.895020,178.190720 478.260315,173.100754 
	C480.917755,170.925507 483.515747,169.144867 485.566956,166.871017 
	C497.943573,153.151047 507.467621,137.865051 511.083588,119.402130 
	C511.195312,118.831528 512.337952,118.462830 513.000000,118.000000 
z"/>
<path fill="#000000" opacity="1.000000" stroke="none" 
	d="
M1.000003,369.000000 
	C1.000000,262.311890 1.000000,155.623810 1.299501,48.150345 
	C5.588353,52.923920 8.758040,59.408546 13.753192,63.831589 
	C21.877029,71.024971 31.928904,73.833656 42.984207,71.502251 
	C50.317307,87.129944 57.656929,102.376144 64.880745,117.677017 
	C68.024254,124.335335 70.929932,131.105927 73.618530,137.961288 
	C72.952118,138.459579 72.665176,138.903549 72.261681,139.172913 
	C56.266647,149.850555 43.863495,163.468246 35.872112,181.233246 
	C26.794880,201.412140 24.386415,222.247955 29.351498,243.571716 
	C34.350193,265.039825 45.088959,283.376770 63.014172,297.358582 
	C65.035889,299.162415 66.947060,300.642944 68.762131,302.450562 
	C60.761566,317.136230 52.857101,331.494873 44.531021,345.911255 
	C43.539875,345.687378 42.992260,345.221771 42.397617,345.150909 
	C25.205727,343.102844 10.460196,350.609863 2.974936,367.123505 
	C2.627536,367.889923 1.672209,368.380798 1.000003,369.000000 
z"/>
<path fill="#DEDEE6" opacity="1.000000" stroke="none" 
	d="
M513.000000,117.531342 
	C512.337952,118.462830 511.195312,118.831528 511.083588,119.402130 
	C507.467621,137.865051 497.943573,153.151047 485.566956,166.871017 
	C483.515747,169.144867 480.917755,170.925507 478.030701,172.770966 
	C475.938995,166.572342 474.389038,160.536850 472.974701,154.149353 
	C474.156403,152.299301 475.089020,150.704941 476.265869,149.317810 
	C492.070312,130.689468 497.647675,109.229721 494.074951,85.230354 
	C488.867035,50.247223 459.435547,22.502052 424.529602,19.210281 
	C396.647095,16.580849 372.844055,25.873049 354.676117,47.810551 
	C336.298096,70.001678 332.999298,95.223602 340.301544,122.353706 
	C343.616638,134.670273 351.172394,144.627655 359.102936,154.652222 
	C357.396240,161.082428 355.710693,167.144669 353.702332,173.052475 
	C351.870544,171.713913 350.071411,170.763077 348.900787,169.306946 
	C342.457672,161.292236 336.168182,153.153976 329.884979,144.683746 
	C327.605194,138.859283 325.266388,133.409180 322.927582,127.959099 
	C321.618439,121.021004 320.374298,114.069870 318.985382,107.147781 
	C316.725586,95.885330 319.593689,84.950684 321.283630,73.329132 
	C323.687988,67.139946 325.773621,61.538776 328.022339,55.606422 
	C334.465546,46.335247 339.693909,36.357922 347.260101,28.686251 
	C360.226654,15.538857 376.094574,6.532082 394.592529,2.916782 
	C395.164673,2.804955 395.535370,1.662147 396.000000,0.999995 
	C409.020905,1.000000 422.041779,1.000000 435.212158,1.325444 
	C436.177124,2.099950 436.943481,2.774080 437.815491,2.964652 
	C453.399811,6.370423 467.264679,13.377797 479.190002,23.814598 
	C495.351288,37.958645 506.628693,55.251957 511.081573,76.589714 
	C511.202271,77.168068 512.337708,77.534660 513.000000,78.000000 
	C513.000000,91.020897 513.000000,104.041786 513.000000,117.531342 
z"/>
<path fill="#FFCA56" opacity="1.000000" stroke="none" 
	d="
M362.992004,491.186157 
	C353.657440,499.680664 342.509521,504.895386 330.741974,508.970978 
	C327.305939,510.160980 323.826752,511.226288 320.683655,512.674316 
	C307.979095,513.000000 294.958221,513.000000 281.468658,513.000000 
	C280.691681,512.355957 280.477539,511.218658 280.061432,511.139221 
	C264.784729,508.223022 251.548828,501.040741 239.284973,491.122437 
	C241.176224,483.954926 243.056641,477.478577 245.188782,470.773804 
	C251.393555,459.972534 259.537323,451.470490 270.939850,447.190125 
	C277.955200,444.556610 285.647034,443.725159 293.342712,442.353516 
	C298.752502,442.451691 303.854706,442.280914 309.369019,442.150543 
	C322.809601,443.081787 335.003143,446.549866 344.550964,455.825287 
	C349.574615,460.705627 353.450195,466.767792 357.870422,472.667725 
	C359.595123,479.088196 361.293549,485.137177 362.992004,491.186157 
z"/>
<path fill="#DEDEE6" opacity="1.000000" stroke="none" 
	d="
M42.943726,71.142952 
	C31.928904,73.833656 21.877029,71.024971 13.753192,63.831589 
	C8.758040,59.408546 5.588353,52.923920 1.299501,47.682487 
	C1.000000,40.645748 1.000000,33.291496 1.301398,25.783806 
	C1.865663,25.428534 2.273677,25.280134 2.370491,25.017166 
	C6.357298,14.188032 13.210847,6.254731 24.578514,2.776059 
	C24.872633,2.686054 24.866243,1.614042 25.000000,1.000000 
	C32.354252,1.000000 39.708500,1.000000 47.531376,0.999999 
	C48.619720,1.672166 49.112148,2.669255 49.877701,2.969177 
	C71.315643,11.367880 79.009178,39.489201 64.790779,57.696796 
	C63.291351,59.616905 61.693054,61.459808 59.644176,63.684681 
	C53.746391,66.401535 48.345058,68.772247 42.943726,71.142952 
z"/>
<path fill="#DEDEE6" opacity="1.000000" stroke="none" 
	d="
M1.000003,369.468628 
	C1.672209,368.380798 2.627536,367.889923 2.974936,367.123505 
	C10.460196,350.609863 25.205727,343.102844 42.397617,345.150909 
	C42.992260,345.221771 43.539875,345.687378 44.889107,345.991577 
	C51.064320,349.026306 56.459831,352.038452 61.855339,355.050598 
	C76.492447,371.276855 75.401207,393.951233 59.177608,408.286072 
	C47.318600,418.764435 26.386971,418.610291 14.305571,408.991760 
	C8.272606,404.188690 5.056592,397.798584 1.301373,391.684845 
	C1.000000,384.645752 1.000000,377.291504 1.000003,369.468628 
z"/>
<path fill="#DEDEE6" opacity="1.000000" stroke="none" 
	d="
M277.923157,56.997002 
	C272.018097,64.343712 264.834564,69.463051 255.318359,71.334038 
	C244.811432,73.399803 235.287170,71.085060 226.836823,65.149429 
	C217.167999,58.357941 212.859283,48.118580 212.113663,36.686272 
	C211.214035,22.892519 221.909058,7.909797 235.249207,2.991462 
	C236.098206,2.678446 236.839203,2.072515 237.315216,1.301427 
	C244.354248,1.000000 251.708496,1.000000 259.210480,1.295193 
	C263.650604,4.305255 268.341248,6.555767 272.155975,9.827541 
	C281.299225,17.669420 284.356689,28.227957 283.989258,40.294601 
	C281.863647,46.093746 279.893402,51.545372 277.923157,56.997002 
z"/>
<path fill="#DEDEE6" opacity="1.000000" stroke="none" 
	d="
M443.855560,312.946350 
	C437.179871,293.249084 448.068909,271.264191 469.621124,266.288055 
	C486.705017,262.343567 504.178284,270.626465 511.006195,288.250275 
	C511.333984,289.096283 511.927429,289.839417 512.698608,290.315216 
	C513.000000,297.354248 513.000000,304.708496 513.000000,312.531372 
	C512.334045,313.456451 511.336639,313.762512 511.051270,314.391571 
	C505.685822,326.220795 497.141418,333.586823 483.985779,336.169708 
	C472.306091,338.462799 462.779388,334.884583 453.358948,327.771667 
	C449.928619,322.511780 446.892090,317.729065 443.855560,312.946350 
z"/>
<path fill="#000000" opacity="1.000000" stroke="none" 
	d="
M284.144623,39.947090 
	C284.356689,28.227957 281.299225,17.669420 272.155975,9.827541 
	C268.341248,6.555767 263.650604,4.305255 259.679108,1.295193 
	C305.020905,1.000000 350.041779,1.000000 395.531342,0.999995 
	C395.535370,1.662147 395.164673,2.804955 394.592529,2.916782 
	C376.094574,6.532082 360.226654,15.538857 347.260101,28.686251 
	C339.693909,36.357922 334.465546,46.335247 327.694702,55.473351 
	C324.029694,54.420544 320.884033,53.090302 317.675934,51.933060 
	C306.510498,47.905373 295.323456,43.937626 284.144623,39.947090 
z"/>
<path fill="#000000" opacity="1.000000" stroke="none" 
	d="
M513.000000,77.531342 
	C512.337708,77.534660 511.202271,77.168068 511.081573,76.589714 
	C506.628693,55.251957 495.351288,37.958645 479.190002,23.814598 
	C467.264679,13.377797 453.399811,6.370423 437.815491,2.964652 
	C436.943481,2.774080 436.177124,2.099950 435.680786,1.325444 
	C461.593536,1.000000 487.187103,1.000000 513.000000,1.000000 
	C513.000000,26.353806 513.000000,51.708244 513.000000,77.531342 
z"/>
<path fill="#000000" opacity="1.000000" stroke="none" 
	d="
M24.531307,1.000000 
	C24.866243,1.614042 24.872633,2.686054 24.578514,2.776059 
	C13.210847,6.254731 6.357298,14.188032 2.370491,25.017166 
	C2.273677,25.280134 1.865663,25.428534 1.301398,25.315184 
	C1.000000,17.073662 1.000000,9.147325 1.000000,1.000000 
	C8.686132,1.000000 16.374374,1.000000 24.531307,1.000000 
z"/>
<path fill="#DEDEE6" opacity="1.000000" stroke="none" 
	d="
M244.937073,471.002228 
	C243.056641,477.478577 241.176224,483.954926 239.154633,490.810364 
	C225.376709,479.646912 215.263748,465.604462 208.976028,448.070740 
	C207.301208,441.215271 205.625580,435.137848 203.949951,429.060425 
	C204.300034,419.019043 204.063171,408.913422 205.153625,398.953094 
	C206.423721,387.352295 210.849457,376.554932 216.990768,366.657379 
	C220.465576,361.057281 224.838272,356.014282 229.220978,350.274536 
	C234.098083,345.603729 238.560715,341.378754 243.350922,337.001923 
	C252.533051,332.345947 261.218170,327.459686 270.287109,323.439056 
	C280.529327,318.898285 291.742035,318.337006 302.701508,318.219604 
	C310.405701,318.137054 318.131866,320.107178 326.051849,321.460266 
	C331.855194,323.791595 337.454895,325.823364 343.054626,327.855133 
	C356.644318,334.063904 368.145233,342.918030 377.561737,355.342468 
	C381.221497,360.904022 384.545502,365.960175 387.869507,371.016327 
	C393.748352,382.662445 396.954498,394.911713 398.201996,407.990875 
	C399.464355,421.226166 397.764099,433.910004 393.898834,446.324768 
	C389.994965,458.863617 383.653442,470.241791 374.564728,479.893036 
	C371.023315,483.653656 367.283600,487.227539 363.313110,491.036316 
	C361.293549,485.137177 359.595123,479.088196 358.028992,472.340027 
	C361.574402,467.154968 365.326843,462.884613 368.337189,458.143127 
	C377.596191,443.559662 381.188873,427.602814 380.115082,410.301392 
	C378.951355,391.551208 371.959381,375.440002 359.293121,361.918945 
	C342.832214,344.347046 322.474487,336.014709 298.166656,336.894135 
	C272.246368,337.831909 251.942902,349.053192 236.794189,369.564911 
	C223.139481,388.053741 218.969452,409.177063 223.288132,431.541351 
	C226.229050,446.770905 232.749741,460.578979 244.937073,471.002228 
z"/>
<path fill="#5EBCD9" opacity="1.000000" stroke="none" 
	d="
M68.858231,302.123505 
	C66.947060,300.642944 65.035889,299.162415 63.032978,296.942535 
	C64.669601,289.832550 66.397972,283.461853 68.383224,276.876038 
	C79.575729,257.621979 96.284836,248.512985 118.287338,248.248962 
	C122.729027,248.351303 126.860771,248.179871 131.416901,247.986755 
	C139.724258,249.732513 147.922333,250.658066 155.416992,253.463058 
	C166.903137,257.761932 174.470688,266.975342 180.814957,277.586884 
	C182.611221,284.100891 184.335098,290.250031 185.898346,296.654388 
	C184.830276,297.965515 183.922821,299.021423 183.015381,300.077332 
	C169.399689,309.547119 154.844116,316.659058 137.091537,318.007782 
	C128.105347,318.015137 120.024673,318.037079 111.944000,318.059021 
	C103.548485,316.034912 95.152962,314.010773 86.181015,311.647003 
	C80.022476,308.246063 74.440353,305.184784 68.858231,302.123505 
z"/>
<path fill="#DEDEE6" opacity="1.000000" stroke="none" 
	d="
M151.815765,460.901886 
	C151.228210,463.838379 150.874649,466.845459 150.013840,469.699524 
	C145.568375,484.438629 135.860428,492.672577 120.415710,495.157776 
	C101.673943,498.173492 84.927750,484.955292 81.043579,468.745148 
	C76.424461,449.467804 86.981361,430.730377 106.288933,425.451324 
	C120.371765,421.600830 137.228836,425.640472 146.090439,441.316223 
	C146.407654,441.877380 146.923096,442.326508 147.694260,443.362152 
	C149.300171,449.564941 150.557968,455.233429 151.815765,460.901886 
z"/>
<path fill="#45639C" opacity="1.000000" stroke="none" 
	d="
M183.141144,300.381409 
	C183.922821,299.021423 184.830276,297.965515 186.225464,296.527344 
	C190.038315,293.344025 193.363403,290.542969 197.026855,287.882233 
	C202.801437,293.766449 208.287582,299.464111 213.662979,305.264404 
	C223.484375,315.862152 233.240189,326.520660 243.023361,337.153809 
	C238.560715,341.378754 234.098083,345.603729 229.319305,349.953491 
	C220.435440,340.926483 211.833450,331.806458 203.310928,322.612793 
	C196.578934,315.350647 189.944626,307.997955 183.141144,300.381409 
z"/>
<path fill="#45639C" opacity="1.000000" stroke="none" 
	d="
M152.225800,460.922729 
	C150.557968,455.233429 149.300171,449.564941 148.017944,443.502289 
	C160.114670,440.073303 172.235657,437.037872 184.357025,434.003998 
	C190.645538,432.429993 196.934738,430.858765 203.586792,429.173340 
	C205.625580,435.137848 207.301208,441.215271 208.927826,447.695801 
	C201.399887,449.723694 193.904449,451.276459 186.445938,452.990051 
	C175.162399,455.582458 163.904587,458.286804 152.225800,460.922729 
z"/>
<path fill="#45639C" opacity="1.000000" stroke="none" 
	d="
M68.762131,302.450562 
	C74.440353,305.184784 80.022476,308.246063 85.790955,311.581055 
	C84.032524,315.017334 81.969383,318.113953 80.164497,321.354462 
	C74.058609,332.316986 68.044243,343.330444 61.925117,354.687531 
	C56.459831,352.038452 51.064320,349.026306 45.310722,345.933838 
	C52.857101,331.494873 60.761566,317.136230 68.762131,302.450562 
z"/>
<path fill="#8DC4E0" opacity="1.000000" stroke="none" 
	d="
M112.178291,318.424988 
	C120.024673,318.037079 128.105347,318.015137 136.663940,318.012421 
	C134.328323,318.350403 131.518692,318.890320 128.700363,318.940460 
	C123.273705,319.037018 117.842125,318.856567 112.178291,318.424988 
z"/>
<path fill="#DEDEE6" opacity="1.000000" stroke="none" 
	d="
M196.688507,287.741943 
	C193.363403,290.542969 190.038315,293.344025 186.386108,296.272095 
	C184.335098,290.250031 182.611221,284.100891 181.128937,277.402710 
	C194.952972,263.391205 202.422485,246.780579 203.784500,228.047226 
	C205.707169,201.603058 196.442413,179.205780 176.195419,161.631805 
	C157.712646,145.589142 136.120148,139.578506 112.278976,143.311066 
	C85.100479,147.566116 65.123856,162.940750 53.042084,187.387939 
	C42.142433,209.443161 42.001396,232.484970 52.660160,254.768585 
	C56.516506,262.830841 62.897408,269.685486 68.126343,277.091187 
	C66.397972,283.461853 64.669601,289.832550 62.922428,296.619263 
	C45.088959,283.376770 34.350193,265.039825 29.351498,243.571716 
	C24.386415,222.247955 26.794880,201.412140 35.872112,181.233246 
	C43.863495,163.468246 56.266647,149.850555 72.261681,139.172913 
	C72.665176,138.903549 72.952118,138.459579 73.981323,138.012177 
	C80.129456,135.268433 85.589699,132.609558 91.049942,129.950699 
	C105.200577,125.362640 119.431381,123.045631 134.535141,124.735603 
	C146.653061,126.091492 157.979568,129.436356 168.754959,134.493301 
	C175.374359,137.599823 181.367889,142.261414 187.181366,146.813599 
	C196.715149,154.278931 203.821259,163.924301 210.186935,174.941467 
	C212.893524,181.117981 215.444885,186.594025 217.998169,192.475677 
	C222.498688,209.109619 223.546295,225.456589 220.023483,242.039001 
	C216.337479,259.389557 208.360886,274.495972 196.688507,287.741943 
z"/>
<path fill="#45639C" opacity="1.000000" stroke="none" 
	d="
M217.996262,192.070068 
	C215.444885,186.594025 212.893524,181.117981 210.270462,175.299103 
	C224.836746,168.781204 239.472992,162.602081 254.113113,156.432129 
	C272.698883,148.599380 291.283081,140.762848 309.878998,132.954330 
	C313.949646,131.245041 318.067047,129.647110 322.545258,127.978500 
	C325.266388,133.409180 327.605194,138.859283 329.526367,144.683350 
	C324.456879,147.055481 319.810974,149.067627 315.152130,151.049362 
	C296.786926,158.861374 278.429901,166.692825 260.045868,174.460403 
	C246.048111,180.374710 232.014130,186.203323 217.996262,192.070068 
z"/>
<path fill="#45639C" opacity="1.000000" stroke="none" 
	d="
M91.014023,129.586426 
	C85.589699,132.609558 80.129456,135.268433 74.306427,137.876419 
	C70.929932,131.105927 68.024254,124.335335 64.880745,117.677017 
	C57.656929,102.376144 50.317307,87.129944 42.984207,71.502251 
	C48.345058,68.772247 53.746391,66.401535 59.502712,63.997734 
	C70.231163,85.717140 80.604630,107.469635 91.014023,129.586426 
z"/>
<path fill="#45639C" opacity="1.000000" stroke="none" 
	d="
M283.989258,40.294605 
	C295.323456,43.937626 306.510498,47.905373 317.675934,51.933060 
	C320.884033,53.090302 324.029694,54.420544 327.531616,55.804539 
	C325.773621,61.538776 323.687988,67.139946 321.273438,72.903259 
	C306.733246,67.924683 292.521973,62.783966 278.116943,57.320122 
	C279.893402,51.545372 281.863647,46.093746 283.989258,40.294605 
z"/>
<path fill="#45639C" opacity="1.000000" stroke="none" 
	d="
M388.051208,370.716675 
	C384.545502,365.960175 381.221497,360.904022 377.869934,355.493561 
	C393.926270,344.572021 409.981537,333.960846 426.109589,323.461548 
	C431.689911,319.828766 437.451111,316.473907 443.492615,312.969238 
	C446.892090,317.729065 449.928619,322.511780 453.033478,327.640259 
	C432.715790,341.329865 412.329987,354.674011 391.943176,368.016693 
	C390.710663,368.823303 389.469818,369.617218 388.051208,370.716675 
z"/>
<path fill="#EE964C" opacity="1.000000" stroke="none" 
	d="
M354.025146,173.206909 
	C355.710693,167.144669 357.396240,161.082428 359.376709,154.439011 
	C369.957245,135.506790 385.609192,125.570641 406.917084,124.073486 
	C397.596252,120.344612 389.929596,115.171188 385.175507,106.402115 
	C380.312653,97.432404 379.466858,88.076431 382.484100,78.394478 
	C387.100616,63.580570 402.109344,53.099445 417.159241,54.059158 
	C434.324707,55.153774 447.478943,66.645981 450.566406,83.245361 
	C453.805573,100.660393 445.158020,114.187408 424.217651,124.014175 
	C425.429688,124.385002 426.311768,124.861221 427.212555,124.899811 
	C442.975098,125.575058 455.657440,132.406967 465.689545,144.322800 
	C468.349701,147.482452 470.470612,151.096130 472.839111,154.501343 
	C474.389038,160.536850 475.938995,166.572342 477.718567,172.937637 
	C469.895020,178.190720 462.131226,183.692688 453.719421,187.898651 
	C441.762726,193.877075 428.579468,195.766983 415.371674,195.812180 
	C407.626953,195.838699 399.875885,194.000717 391.489319,192.679810 
	C385.230042,190.300613 379.609161,188.243042 373.624817,186.101913 
	C366.849335,181.747879 360.437256,177.477386 354.025146,173.206909 
z"/>
<path fill="#45639C" opacity="1.000000" stroke="none" 
	d="
M373.988220,186.185471 
	C379.609161,188.243042 385.230042,190.300613 391.083069,192.655930 
	C385.239227,209.930984 379.143829,226.901352 373.091766,243.887192 
	C363.629486,270.444336 354.201569,297.013763 344.734711,323.569244 
	C344.297119,324.796814 343.622009,325.939667 343.056030,327.488525 
	C337.454895,325.823364 331.855194,323.791595 326.115417,321.061981 
	C326.958221,317.589020 327.932892,314.810974 328.925201,312.039246 
	C343.944855,270.087494 358.966797,228.136566 373.988220,186.185471 
z"/>
<path fill="#000000" opacity="1.000000" stroke="none" 
	d="
M373.624817,186.101913 
	C358.966797,228.136566 343.944855,270.087494 328.925201,312.039246 
	C327.932892,314.810974 326.958221,317.589020 325.911804,320.762421 
	C318.131866,320.107178 310.405701,318.137054 302.701508,318.219604 
	C291.742035,318.337006 280.529327,318.898285 270.287109,323.439056 
	C261.218170,327.459686 252.533051,332.345947 243.350922,337.001923 
	C233.240189,326.520660 223.484375,315.862152 213.662979,305.264404 
	C208.287582,299.464111 202.801437,293.766449 197.026855,287.882233 
	C208.360886,274.495972 216.337479,259.389557 220.023483,242.039001 
	C223.546295,225.456589 222.498688,209.109619 217.998169,192.475677 
	C232.014130,186.203323 246.048111,180.374710 260.045868,174.460403 
	C278.429901,166.692825 296.786926,158.861374 315.152130,151.049362 
	C319.810974,149.067627 324.456879,147.055481 329.467346,145.057709 
	C336.168182,153.153976 342.457672,161.292236 348.900787,169.306946 
	C350.071411,170.763077 351.870544,171.713913 353.702332,173.052460 
	C360.437256,177.477386 366.849335,181.747879 373.624817,186.101913 
z"/>
<path fill="#F3F3FA" opacity="1.000000" stroke="none" 
	d="
M472.974701,154.149353 
	C470.470612,151.096130 468.349701,147.482452 465.689545,144.322800 
	C455.657440,132.406967 442.975098,125.575058 427.212555,124.899811 
	C426.311768,124.861221 425.429688,124.385002 424.217651,124.014175 
	C445.158020,114.187408 453.805573,100.660393 450.566406,83.245361 
	C447.478943,66.645981 434.324707,55.153774 417.159241,54.059158 
	C402.109344,53.099445 387.100616,63.580570 382.484100,78.394478 
	C379.466858,88.076431 380.312653,97.432404 385.175507,106.402115 
	C389.929596,115.171188 397.596252,120.344612 406.917084,124.073486 
	C385.609192,125.570641 369.957245,135.506790 359.397858,154.071045 
	C351.172394,144.627655 343.616638,134.670273 340.301544,122.353706 
	C332.999298,95.223602 336.298096,70.001678 354.676117,47.810551 
	C372.844055,25.873049 396.647095,16.580849 424.529602,19.210281 
	C459.435547,22.502052 488.867035,50.247223 494.074951,85.230354 
	C497.647675,109.229721 492.070312,130.689468 476.265869,149.317810 
	C475.089020,150.704941 474.156403,152.299301 472.974701,154.149353 
z"/>
<path fill="#F3F3FA" opacity="1.000000" stroke="none" 
	d="
M245.188782,470.773804 
	C232.749741,460.578979 226.229050,446.770905 223.288132,431.541351 
	C218.969452,409.177063 223.139481,388.053741 236.794189,369.564911 
	C251.942902,349.053192 272.246368,337.831909 298.166656,336.894135 
	C322.474487,336.014709 342.832214,344.347046 359.293121,361.918945 
	C371.959381,375.440002 378.951355,391.551208 380.115082,410.301392 
	C381.188873,427.602814 377.596191,443.559662 368.337189,458.143127 
	C365.326843,462.884613 361.574402,467.154968 358.002777,471.968536 
	C353.450195,466.767792 349.574615,460.705627 344.550964,455.825287 
	C335.003143,446.549866 322.809601,443.081787 309.433990,441.915558 
	C309.086853,441.640167 309.160095,441.159180 309.528015,441.099243 
	C328.260651,435.617157 339.212708,418.358643 335.630188,400.486542 
	C332.083099,382.790985 316.739044,371.074799 298.331909,372.006775 
	C282.297455,372.818665 267.758331,386.456818 266.077698,402.262268 
	C264.085663,420.996368 274.839081,436.639465 292.862427,441.406555 
	C292.897369,441.637726 293.035126,442.084595 293.035126,442.084595 
	C285.647034,443.725159 277.955200,444.556610 270.939850,447.190125 
	C259.537323,451.470490 251.393555,459.972534 245.188782,470.773804 
z"/>
<path fill="#FBDA95" opacity="1.000000" stroke="none" 
	d="
M309.160095,441.159180 
	C309.160095,441.159180 309.086853,441.640167 309.021851,441.875153 
	C303.854706,442.280914 298.752502,442.451691 293.342712,442.353516 
	C293.035126,442.084595 292.897369,441.637726 293.292114,441.365204 
	C298.844635,441.114838 304.002350,441.136993 309.160095,441.159180 
z"/>
<path fill="#F2F3FB" opacity="1.000000" stroke="none" 
	d="
M68.383224,276.876038 
	C62.897408,269.685486 56.516506,262.830841 52.660160,254.768585 
	C42.001396,232.484970 42.142433,209.443161 53.042084,187.387939 
	C65.123856,162.940750 85.100479,147.566116 112.278976,143.311066 
	C136.120148,139.578506 157.712646,145.589142 176.195419,161.631805 
	C196.442413,179.205780 205.707169,201.603058 203.784500,228.047226 
	C202.422485,246.780579 194.952972,263.391205 181.056549,277.037842 
	C174.470688,266.975342 166.903137,257.761932 155.416992,253.463058 
	C147.922333,250.658066 139.724258,249.732513 131.680664,247.737915 
	C150.738480,243.061691 161.434097,225.385483 159.230362,208.783875 
	C157.327606,194.449646 147.816162,182.888596 134.103363,179.039124 
	C120.019127,175.085373 105.159286,180.048920 96.277199,191.673981 
	C87.763199,202.817276 86.967377,218.330505 94.024307,230.639511 
	C99.435783,240.078445 108.055016,244.876495 117.977409,247.975189 
	C96.284836,248.512985 79.575729,257.621979 68.383224,276.876038 
z"/>
<path fill="#5EBCD9" opacity="1.000000" stroke="none" 
	d="
M118.287338,248.248962 
	C108.055016,244.876495 99.435783,240.078445 94.024307,230.639511 
	C86.967377,218.330505 87.763199,202.817276 96.277199,191.673981 
	C105.159286,180.048920 120.019127,175.085373 134.103363,179.039124 
	C147.816162,182.888596 157.327606,194.449646 159.230362,208.783875 
	C161.434097,225.385483 150.738480,243.061691 131.256287,247.759613 
	C126.860771,248.179871 122.729027,248.351303 118.287338,248.248962 
z"/>
<path fill="#FFCA56" opacity="1.000000" stroke="none" 
	d="
M309.528015,441.099243 
	C304.002350,441.136993 298.844635,441.114838 293.257172,441.134033 
	C274.839081,436.639465 264.085663,420.996368 266.077698,402.262268 
	C267.758331,386.456818 282.297455,372.818665 298.331909,372.006775 
	C316.739044,371.074799 332.083099,382.790985 335.630188,400.486542 
	C339.212708,418.358643 328.260651,435.617157 309.528015,441.099243 
z"/>
</svg>